<svg width="312" height="227" viewBox="0 0 312 227" fill="none" xmlns="http://www.w3.org/2000/svg">
<path d="M178.388 19.7562C178.388 19.7562 183.899 8.3315 197.104 9.61229C197.104 9.61229 216.264 -9.42883 236.686 7.06779C236.686 7.06779 258.405 2.98633 274.476 10.6028C285.191 15.6918 288.739 21.0199 288.739 21.0199L178.388 19.7562Z" fill="#DDF0FF"/>
<path d="M81.9114 121.366C81.9114 121.366 89.3671 108.438 107.179 109.873C107.179 109.873 133.043 88.3213 160.614 107.004C160.614 107.004 189.925 102.376 211.644 111.017C226.112 116.772 230.906 122.817 230.906 122.817L81.9114 121.366Z" fill="#F8FCFF"/>
<path d="M204.666 64.3448C204.666 64.3448 199.036 54.6791 185.574 57.0699C172.13 59.4607 175.696 75.0181 168.257 82.3272C160.819 89.6362 154.319 96.1597 157.526 106.491C160.716 116.823 143.741 119.026 143.792 134.635C143.843 150.243 147.46 159.431 168.326 160.643C189.191 161.856 222.563 156.34 227.084 150.038C231.605 143.754 230.837 129.939 219.492 112.298C208.146 94.674 218.519 93.0858 210.927 82.8736C203.352 72.6785 208.692 68.5458 204.666 64.3448Z" fill="#79B27F"/>
<path d="M28.1655 48.2069C28.1655 48.2069 33.0621 39.7024 44.783 40.6587C44.783 40.6587 61.7929 26.4846 79.9289 38.7632C79.9289 38.7632 99.2079 35.7234 113.471 41.393C122.991 45.1842 126.13 49.1461 126.13 49.1461L28.1655 48.2069Z" fill="#DDF0FF"/>
<path d="M16.1003 222.642C16.1003 222.642 121.214 190.605 147.675 188.283C174.137 185.96 148.784 191.391 148.784 191.391C148.784 191.391 76.8549 210.125 60.135 218.117C24.7844 234.989 16.1003 222.642 16.1003 222.642Z" fill="#D4DFFF"/>
<path d="M13.8796 164.222C13.8796 164.222 95.1362 139.339 115.592 137.535C136.048 135.731 116.449 139.949 116.449 139.949C116.449 139.949 60.8452 154.499 47.9201 160.707C20.5928 173.812 13.8796 164.222 13.8796 164.222Z" fill="#D4DFFF"/>
<path d="M95.303 107.645C95.303 107.645 141.89 93.6858 153.618 92.6739C165.346 91.6619 154.11 94.0281 154.11 94.0281C154.11 94.0281 122.23 102.191 114.82 105.673C99.1518 113.024 95.303 107.645 95.303 107.645Z" fill="#D4DFFF"/>
<path d="M45.9802 221.199C45.9802 221.199 133.572 180.931 157.287 174.391C180.985 167.85 158.822 176.986 158.822 176.986C158.822 176.986 89.6566 213.088 75.1717 222.207C73.0562 223.522 45.9802 221.199 45.9802 221.199Z" fill="#D4DFFF"/>
<path d="M151.282 198.435C151.282 198.435 130.126 192.134 117.739 199.853C105.353 207.572 112.672 216.435 98.0339 215.666C83.3785 214.898 76.0593 214.146 75.2915 222.822H140.072L151.282 198.435Z" fill="#A8D29F"/>
<path d="M240.75 122.886H169.656V222.668H240.75V122.886Z" fill="#C6D2FE"/>
<path d="M295.993 125.55V222.668H240.75V122.869H293.588C294.424 123.757 295.226 124.645 295.993 125.55Z" fill="#E7ECFE"/>
<path d="M254.518 90.3022L248.905 101.881L246.414 106.987L246.329 107.192L246.226 107.379L246.141 107.533L246.005 107.789L245.953 107.926L243.497 112.981L243.36 113.237L243.053 113.903L238.685 122.886L237.679 124.986L236.263 127.889L235.512 129.443H164.743L169.639 123.091L169.793 122.886L201.612 81.6612L201.646 81.627H204.444L247.608 81.4733C249.127 84.3935 251.549 87.3479 254.518 90.3022Z" fill="#ED9F4A"/>
<path d="M240.75 128.965V137.265L169.656 140.27V129.443H167.541L204.444 81.6099L240.75 128.965Z" fill="#C6D2FE"/>
<path d="M205.075 105.433H203.591C198.541 105.433 194.446 109.531 194.446 114.586V137.845H213.93V114.296C213.93 109.395 209.972 105.433 205.075 105.433Z" fill="#778BEC"/>
<path d="M302.477 132.09H239.453L236.263 127.872L232.509 122.869L202.994 83.4884L201.612 81.6441L201.458 81.4392H264.499L264.652 81.6441L266.017 83.4884L295.55 122.869L299.286 127.872L302.477 132.09Z" fill="#F99746"/>
<path d="M196.732 142.849L180.149 177.02H129.75L156.025 142.968L196.732 142.849Z" fill="#ED9F4A"/>
<path d="M198.234 142.849L181.65 177.02H131.269L157.543 142.968L198.234 142.849Z" fill="#C6D2FE"/>
<path d="M181.548 177.02V222.583L131.269 222.685V177.02H181.548Z" fill="#C6D2FE"/>
<path d="M224.115 177.02H181.548V222.565H224.115V177.02Z" fill="#E7ECFE"/>
<path d="M228.807 179.053H183.066L156.024 142.968H169.656L200.98 142.986L228.807 179.053Z" fill="#F99746"/>
<path d="M153.653 161.941C153.653 160.626 154.71 159.568 156.024 159.568C157.338 159.568 158.396 160.626 158.396 161.941C158.396 163.256 157.338 164.315 156.024 164.315C154.71 164.332 153.653 163.256 153.653 161.941Z" fill="#778BEC"/>
<path d="M228.807 179.053H220.123L169.656 142.968L200.98 142.986L228.807 179.053Z" fill="#E88338"/>
<path d="M251.532 124.286H286.149L267.894 101.881H233.277L251.532 124.286Z" fill="#2B478B"/>
<path d="M238.003 107.789H272.603L272.381 107.516H237.781L238.003 107.789Z" fill="#AEC3FF"/>
<path d="M259.755 101.881L278.011 124.286H278.267L260.011 101.881H259.755Z" fill="#AEC3FF"/>
<path d="M250.577 101.881L268.832 124.286H269.105L250.85 101.881H250.577Z" fill="#AEC3FF"/>
<path d="M241.756 101.881L260.011 124.286H260.284L242.029 101.881H241.756Z" fill="#AEC3FF"/>
<path d="M242.524 113.22H277.124L276.902 112.947H242.302L242.524 113.22Z" fill="#AEC3FF"/>
<path d="M247.301 119.077H281.901L281.679 118.821H247.079L247.301 119.077Z" fill="#AEC3FF"/>
<path d="M265.505 108.746L265.71 107.67L263.748 106.594L263.56 107.67L265.505 108.746Z" fill="#AEC3FF"/>
<path d="M256.446 108.746L256.651 107.67L254.689 106.594L254.484 107.67L256.446 108.746Z" fill="#AEC3FF"/>
<path d="M247.489 108.746L247.693 107.67L245.731 106.594L245.527 107.67L247.489 108.746Z" fill="#AEC3FF"/>
<path d="M269.924 114.159L270.129 113.083L268.167 112.007L267.962 113.083L269.924 114.159Z" fill="#AEC3FF"/>
<path d="M260.848 114.159L261.053 113.083L259.091 112.007L258.903 113.083L260.848 114.159Z" fill="#AEC3FF"/>
<path d="M251.908 114.159L252.095 113.083L250.15 112.007L249.946 113.083L251.908 114.159Z" fill="#AEC3FF"/>
<path d="M274.701 120.017L274.906 118.941L272.944 117.865L272.739 118.941L274.701 120.017Z" fill="#AEC3FF"/>
<path d="M265.625 120.017L265.829 118.941L263.867 117.865L263.68 118.941L265.625 120.017Z" fill="#AEC3FF"/>
<path d="M256.667 120.017L256.872 118.941L254.91 117.865L254.722 118.941L256.667 120.017Z" fill="#AEC3FF"/>
<path d="M186.223 172.102H217.581L201.032 151.797H169.673L186.223 172.102Z" fill="#2B478B"/>
<path d="M173.955 157.143H205.313L205.109 156.903H173.75L173.955 157.143Z" fill="#AEC3FF"/>
<path d="M193.661 151.797L210.21 172.102H210.449L193.9 151.797H193.661Z" fill="#AEC3FF"/>
<path d="M185.352 151.797L201.902 172.102H202.14L185.591 151.797H185.352Z" fill="#AEC3FF"/>
<path d="M177.368 151.797L193.9 172.102H194.139L177.607 151.797H177.368Z" fill="#AEC3FF"/>
<path d="M178.05 162.061H209.408L209.204 161.822H177.862L178.05 162.061Z" fill="#AEC3FF"/>
<path d="M182.367 167.372H213.725L213.537 167.133H182.179L182.367 167.372Z" fill="#AEC3FF"/>
<path d="M198.882 158.014L199.069 157.04L197.295 156.067L197.107 157.04L198.882 158.014Z" fill="#AEC3FF"/>
<path d="M190.658 158.014L190.846 157.04L189.071 156.067L188.901 157.04L190.658 158.014Z" fill="#AEC3FF"/>
<path d="M182.554 158.014L182.742 157.04L180.967 156.067L180.78 157.04L182.554 158.014Z" fill="#AEC3FF"/>
<path d="M202.874 162.932L203.062 161.941L201.287 160.968L201.1 161.941L202.874 162.932Z" fill="#AEC3FF"/>
<path d="M194.667 162.932L194.838 161.941L193.064 160.968L192.893 161.941L194.667 162.932Z" fill="#AEC3FF"/>
<path d="M186.547 162.932L186.734 161.941L184.96 160.968L184.772 161.941L186.547 162.932Z" fill="#AEC3FF"/>
<path d="M207.208 168.243L207.395 167.252L205.621 166.279L205.433 167.252L207.208 168.243Z" fill="#AEC3FF"/>
<path d="M198.984 168.243L199.172 167.252L197.397 166.279L197.21 167.252L198.984 168.243Z" fill="#AEC3FF"/>
<path d="M190.88 168.243L191.051 167.252L189.277 166.279L189.106 167.252L190.88 168.243Z" fill="#AEC3FF"/>
<path d="M4.99634 110.351C4.99634 110.351 7.8626 105.006 14.687 105.586C14.687 105.586 24.6166 96.6549 35.1945 104.391C35.1945 104.391 46.4548 102.478 54.7806 106.047C60.3425 108.438 62.168 110.931 62.168 110.931L4.99634 110.351Z" fill="#DDF0FF"/>
<path d="M111.714 64.2082C111.714 64.2082 114.086 59.1191 119.75 59.6827C119.75 59.6827 127.973 51.1953 136.743 58.5556C136.743 58.5556 146.058 56.7283 152.968 60.1267C157.574 62.398 159.093 64.7717 159.093 64.7717L111.714 64.2082Z" fill="#DDF0FF"/>
<path d="M32.8938 221.831L37.5344 221.78L48.3682 176.576L43.7276 176.645L32.8938 221.831Z" fill="#1D3F77"/>
<path d="M25.2334 222.839H46.0479C46.0479 221.626 45.0584 220.636 43.847 220.636H27.4513C26.2059 220.636 25.2334 221.626 25.2334 222.839Z" fill="#1D3F77"/>
<path d="M73.2944 201.919L71.2983 191.878L71.2812 191.861L64.6445 158.492H0L8.64996 201.919H20.934H21.0363H34.7876H34.8217H48.5047H48.6071H62.2559H62.3753H73.2944Z" fill="#1D3F77"/>
<path d="M74.4033 201.048L9.75884 201.065L1.10889 158.492H65.7533L74.4033 201.048Z" fill="#2A4E96"/>
<path d="M22.1623 201.065H22.0258L13.4099 158.611H13.5293L22.1623 201.065Z" fill="#C0D8FB"/>
<path d="M35.9308 201.065H35.8113L27.1785 158.611H27.2979L35.9308 201.065Z" fill="#C0D8FB"/>
<path d="M49.7162 201.065H49.5797L40.9468 158.611H41.0833L49.7162 201.065Z" fill="#C0D8FB"/>
<path d="M63.4843 201.065H63.3649L54.7319 158.611H54.8514L63.4843 201.065Z" fill="#C0D8FB"/>
<path d="M67.8007 168.584L3.15623 168.601L3.13916 168.482H67.7665L67.8007 168.584Z" fill="#C0D8FB"/>
<path d="M70.1041 179.906L5.45966 179.923L5.42554 179.804L70.07 179.787L70.1041 179.906Z" fill="#C0D8FB"/>
<path d="M72.4073 191.229H7.76288L7.72876 191.126L72.3732 191.109L72.4073 191.229Z" fill="#C0D8FB"/>
<path d="M15.7303 169.797L14.1606 168.533L15.2355 167.286L16.8222 168.533L15.7303 169.797Z" fill="#C0D8FB"/>
<path d="M18.0505 181.17L16.4639 179.924L17.5387 178.66L19.1254 179.924L18.0505 181.17Z" fill="#C0D8FB"/>
<path d="M29.5837 169.797L27.9971 168.533L29.0719 167.286L30.6586 168.533L29.5837 169.797Z" fill="#C0D8FB"/>
<path d="M31.887 181.17L30.3003 179.906L31.3751 178.66L32.9618 179.906L31.887 181.17Z" fill="#C0D8FB"/>
<path d="M43.3521 169.797L41.7654 168.533L42.8402 167.286L44.4269 168.533L43.3521 169.797Z" fill="#C0D8FB"/>
<path d="M57.001 169.78L55.4143 168.533L56.4892 167.286L58.0758 168.533L57.001 169.78Z" fill="#C0D8FB"/>
<path d="M20.3367 192.424L18.75 191.177L19.8249 189.931L21.4115 191.177L20.3367 192.424Z" fill="#C0D8FB"/>
<path d="M34.1733 192.424L32.5867 191.177L33.6615 189.914L35.2482 191.177L34.1733 192.424Z" fill="#C0D8FB"/>
<path d="M47.9585 192.424L46.3718 191.177L47.4467 189.914L49.0334 191.177L47.9585 192.424Z" fill="#C0D8FB"/>
<path d="M61.6074 192.424L60.0208 191.177L61.0956 189.914L62.6823 191.16L61.6074 192.424Z" fill="#C0D8FB"/>
<path d="M59.321 181.153L57.7344 179.906L58.8092 178.66L60.3959 179.906L59.321 181.153Z" fill="#C0D8FB"/>
<path d="M45.6553 181.17L44.0857 179.906L45.1605 178.66L46.7472 179.906L45.6553 181.17Z" fill="#C0D8FB"/>
<path d="M103.696 139.284L105.548 139.264L109.871 121.226L108.019 121.253L103.696 139.284Z" fill="#1D3F77"/>
<path d="M100.64 139.686H108.946C108.946 139.203 108.551 138.807 108.068 138.807H101.525C101.028 138.807 100.64 139.203 100.64 139.686Z" fill="#1D3F77"/>
<path d="M119.819 131.339L119.022 127.332L119.015 127.325L116.367 114.01H90.5718L94.0234 131.339H98.9251H98.966H104.453H104.467H109.927H109.968H115.414H115.462H119.819Z" fill="#1D3F77"/>
<path d="M120.262 130.991L94.4665 130.998L91.0149 114.01H116.81L120.262 130.991Z" fill="#2A4E96"/>
<path d="M99.4136 130.998H99.3592L95.9211 114.058H95.9688L99.4136 130.998Z" fill="#C0D8FB"/>
<path d="M104.907 130.998H104.859L101.415 114.058H101.462L104.907 130.998Z" fill="#C0D8FB"/>
<path d="M110.411 130.998H110.357L106.912 114.058H106.966L110.411 130.998Z" fill="#C0D8FB"/>
<path d="M115.905 130.998H115.857L112.412 114.058H112.46L115.905 130.998Z" fill="#C0D8FB"/>
<path d="M117.628 118.037L91.8325 118.044L91.8257 117.996H117.614L117.628 118.037Z" fill="#C0D8FB"/>
<path d="M118.547 122.555L92.7517 122.562L92.738 122.514L118.533 122.507L118.547 122.555Z" fill="#C0D8FB"/>
<path d="M119.465 127.073H93.6701L93.6565 127.032L119.452 127.025L119.465 127.073Z" fill="#C0D8FB"/>
<path d="M96.8497 118.521L96.2234 118.017L96.6523 117.519L97.2854 118.017L96.8497 118.521Z" fill="#C0D8FB"/>
<path d="M97.776 123.059L97.1428 122.562L97.5717 122.058L98.2049 122.562L97.776 123.059Z" fill="#C0D8FB"/>
<path d="M102.378 118.521L101.745 118.017L102.174 117.519L102.807 118.017L102.378 118.521Z" fill="#C0D8FB"/>
<path d="M103.297 123.059L102.664 122.555L103.093 122.058L103.726 122.555L103.297 123.059Z" fill="#C0D8FB"/>
<path d="M107.872 118.521L107.239 118.017L107.668 117.519L108.301 118.017L107.872 118.521Z" fill="#C0D8FB"/>
<path d="M113.316 118.514L112.683 118.017L113.112 117.519L113.745 118.017L113.316 118.514Z" fill="#C0D8FB"/>
<path d="M98.689 127.55L98.0559 127.052L98.4848 126.555L99.118 127.052L98.689 127.55Z" fill="#C0D8FB"/>
<path d="M104.211 127.55L103.577 127.052L104.006 126.548L104.639 127.052L104.211 127.55Z" fill="#C0D8FB"/>
<path d="M109.71 127.55L109.077 127.052L109.506 126.548L110.139 127.052L109.71 127.55Z" fill="#C0D8FB"/>
<path d="M115.158 127.55L114.525 127.052L114.954 126.548L115.587 127.046L115.158 127.55Z" fill="#C0D8FB"/>
<path d="M114.245 123.052L113.612 122.555L114.041 122.058L114.674 122.555L114.245 123.052Z" fill="#C0D8FB"/>
<path d="M108.79 123.059L108.164 122.555L108.593 122.058L109.226 122.555L108.79 123.059Z" fill="#C0D8FB"/>
<path d="M69.9277 150.975L72.614 150.946L78.8851 124.78L76.1989 124.819L69.9277 150.975Z" fill="#1D3F77"/>
<path d="M65.4946 151.559H77.5431C77.5431 150.857 76.9703 150.284 76.2691 150.284H66.7785C66.0576 150.284 65.4946 150.857 65.4946 151.559Z" fill="#1D3F77"/>
<path d="M93.316 139.449L92.1605 133.637L92.1506 133.627L88.3089 114.311H50.8894L55.8964 139.449H63.007H63.0663H71.0262H71.046H78.9664H79.0256H86.9263H86.9954H93.316Z" fill="#1D3F77"/>
<path d="M93.957 138.945L56.5376 138.954L51.5305 114.311H88.95L93.957 138.945Z" fill="#2A4E96"/>
<path d="M63.7128 138.955H63.6338L58.6465 114.381H58.7156L63.7128 138.955Z" fill="#C0D8FB"/>
<path d="M71.6844 138.955H71.6153L66.6182 114.381H66.6873L71.6844 138.955Z" fill="#C0D8FB"/>
<path d="M79.6694 138.955H79.5904L74.5933 114.381H74.6723L79.6694 138.955Z" fill="#C0D8FB"/>
<path d="M87.6376 138.955H87.5685L82.5713 114.381H82.6404L87.6376 138.955Z" fill="#C0D8FB"/>
<path d="M90.1359 120.153L52.7164 120.163L52.7065 120.094H90.1161L90.1359 120.153Z" fill="#C0D8FB"/>
<path d="M91.4717 126.707L54.0522 126.717L54.0325 126.648L91.452 126.638L91.4717 126.707Z" fill="#C0D8FB"/>
<path d="M92.8006 133.261H55.3811L55.3613 133.201L92.7808 133.191L92.8006 133.261Z" fill="#C0D8FB"/>
<path d="M59.9955 120.855L59.0869 120.123L59.7091 119.401L60.6275 120.123L59.9955 120.855Z" fill="#C0D8FB"/>
<path d="M61.3393 127.439L60.4209 126.717L61.0431 125.985L61.9615 126.717L61.3393 127.439Z" fill="#C0D8FB"/>
<path d="M68.0139 120.855L67.0955 120.123L67.7176 119.401L68.6361 120.123L68.0139 120.855Z" fill="#C0D8FB"/>
<path d="M69.3481 127.439L68.4297 126.707L69.0519 125.985L69.9703 126.707L69.3481 127.439Z" fill="#C0D8FB"/>
<path d="M75.9856 120.855L75.0671 120.123L75.6893 119.401L76.6078 120.123L75.9856 120.855Z" fill="#C0D8FB"/>
<path d="M83.8833 120.845L82.9648 120.123L83.587 119.401L84.5055 120.123L83.8833 120.845Z" fill="#C0D8FB"/>
<path d="M62.6645 133.952L61.7461 133.231L62.3683 132.509L63.2867 133.231L62.6645 133.952Z" fill="#C0D8FB"/>
<path d="M70.6733 133.953L69.7549 133.231L70.3771 132.5L71.2955 133.231L70.6733 133.953Z" fill="#C0D8FB"/>
<path d="M78.6509 133.953L77.7324 133.231L78.3546 132.5L79.2731 133.231L78.6509 133.953Z" fill="#C0D8FB"/>
<path d="M86.5552 133.953L85.6367 133.231L86.2589 132.5L87.1774 133.221L86.5552 133.953Z" fill="#C0D8FB"/>
<path d="M85.23 127.429L84.3115 126.707L84.9337 125.985L85.8521 126.707L85.23 127.429Z" fill="#C0D8FB"/>
<path d="M77.316 127.439L76.4075 126.707L77.0296 125.985L77.9481 126.707L77.316 127.439Z" fill="#C0D8FB"/>
<path d="M116.302 104.052L117.803 104.036L121.307 89.4145L119.806 89.4366L116.302 104.052Z" fill="#1D3F77"/>
<path d="M113.825 104.378H120.557C120.557 103.986 120.237 103.666 119.845 103.666H114.542C114.139 103.666 113.825 103.986 113.825 104.378Z" fill="#1D3F77"/>
<path d="M129.372 97.6117L128.727 94.3638L128.721 94.3582L126.575 83.565H105.665L108.463 97.6117H112.436H112.47H116.917H116.928H121.354H121.387H125.802H125.841H129.372Z" fill="#1D3F77"/>
<path d="M129.729 97.33L108.82 97.3355L106.022 83.565H126.932L129.729 97.33Z" fill="#2A4E96"/>
<path d="M112.831 97.3358H112.787L110 83.604H110.039L112.831 97.3358Z" fill="#C0D8FB"/>
<path d="M117.289 97.3358H117.251L114.458 83.604H114.497L117.289 97.3358Z" fill="#C0D8FB"/>
<path d="M121.748 97.3358H121.704L118.912 83.604H118.956L121.748 97.3358Z" fill="#C0D8FB"/>
<path d="M126.201 97.3358H126.162L123.37 83.604H123.408L126.201 97.3358Z" fill="#C0D8FB"/>
<path d="M127.599 86.8297L106.69 86.8352L106.684 86.7966H127.588L127.599 86.8297Z" fill="#C0D8FB"/>
<path d="M128.345 90.4919L107.436 90.4974L107.425 90.4587L128.334 90.4532L128.345 90.4919Z" fill="#C0D8FB"/>
<path d="M129.086 94.1537H108.177L108.166 94.1205L129.075 94.115L129.086 94.1537Z" fill="#C0D8FB"/>
<path d="M110.755 87.2217L110.247 86.8129L110.594 86.4097L111.108 86.8129L110.755 87.2217Z" fill="#C0D8FB"/>
<path d="M111.507 90.9005L110.993 90.4973L111.341 90.0886L111.854 90.4973L111.507 90.9005Z" fill="#C0D8FB"/>
<path d="M115.235 87.2217L114.722 86.8129L115.069 86.4097L115.583 86.8129L115.235 87.2217Z" fill="#C0D8FB"/>
<path d="M115.981 90.9005L115.468 90.4918L115.816 90.0886L116.329 90.4918L115.981 90.9005Z" fill="#C0D8FB"/>
<path d="M119.689 87.2217L119.176 86.8129L119.524 86.4097L120.037 86.8129L119.689 87.2217Z" fill="#C0D8FB"/>
<path d="M124.104 87.2162L123.59 86.8129L123.938 86.4097L124.451 86.8129L124.104 87.2162Z" fill="#C0D8FB"/>
<path d="M112.246 94.5405L111.733 94.1372L112.081 93.734L112.594 94.1372L112.246 94.5405Z" fill="#C0D8FB"/>
<path d="M116.721 94.5408L116.208 94.1376L116.556 93.7288L117.069 94.1376L116.721 94.5408Z" fill="#C0D8FB"/>
<path d="M121.178 94.5408L120.665 94.1376L121.012 93.7288L121.526 94.1376L121.178 94.5408Z" fill="#C0D8FB"/>
<path d="M125.595 94.5408L125.081 94.1376L125.429 93.7288L125.942 94.132L125.595 94.5408Z" fill="#C0D8FB"/>
<path d="M124.855 90.895L124.342 90.4918L124.689 90.0886L125.202 90.4918L124.855 90.895Z" fill="#C0D8FB"/>
<path d="M120.432 90.9005L119.925 90.4918L120.272 90.0886L120.786 90.4918L120.432 90.9005Z" fill="#C0D8FB"/>
<path d="M136.042 97.1984L137.21 97.1855L139.937 85.808L138.769 85.8252L136.042 97.1984Z" fill="#1D3F77"/>
<path d="M134.114 97.4521H139.353C139.353 97.147 139.104 96.8977 138.799 96.8977H134.673C134.359 96.8977 134.114 97.147 134.114 97.4521Z" fill="#1D3F77"/>
<path d="M146.212 92.1867L145.71 89.6593L145.706 89.655L144.035 81.2562H127.764L129.942 92.1867H133.033H133.059H136.52H136.529H139.973H139.999H143.434H143.464H146.212Z" fill="#1D3F77"/>
<path d="M146.489 91.9675L130.219 91.9718L128.042 81.2562H144.312L146.489 91.9675Z" fill="#2A4E96"/>
<path d="M133.339 91.9723H133.304L131.136 81.2868H131.166L133.339 91.9723Z" fill="#C0D8FB"/>
<path d="M136.808 91.9723H136.778L134.605 81.2868H134.636L136.808 91.9723Z" fill="#C0D8FB"/>
<path d="M140.278 91.9723H140.243L138.07 81.2868H138.105L140.278 91.9723Z" fill="#C0D8FB"/>
<path d="M143.744 91.9723H143.714L141.541 81.2868H141.571L143.744 91.9723Z" fill="#C0D8FB"/>
<path d="M144.83 83.7967L128.56 83.801L128.555 83.771H144.822L144.83 83.7967Z" fill="#C0D8FB"/>
<path d="M145.41 86.6465L129.139 86.6508L129.131 86.6207L145.402 86.6164L145.41 86.6465Z" fill="#C0D8FB"/>
<path d="M145.988 89.496H129.717L129.708 89.4702L145.979 89.4659L145.988 89.496Z" fill="#C0D8FB"/>
<path d="M131.724 84.1016L131.329 83.7835L131.6 83.4697L131.999 83.7835L131.724 84.1016Z" fill="#C0D8FB"/>
<path d="M132.309 86.9643L131.91 86.6505L132.18 86.3325L132.58 86.6505L132.309 86.9643Z" fill="#C0D8FB"/>
<path d="M135.21 84.1016L134.811 83.7835L135.082 83.4697L135.481 83.7835L135.21 84.1016Z" fill="#C0D8FB"/>
<path d="M135.791 86.9643L135.392 86.6462L135.662 86.3325L136.061 86.6462L135.791 86.9643Z" fill="#C0D8FB"/>
<path d="M138.676 84.1016L138.277 83.7835L138.547 83.4697L138.947 83.7835L138.676 84.1016Z" fill="#C0D8FB"/>
<path d="M142.113 84.0973L141.714 83.7835L141.984 83.4697L142.384 83.7835L142.113 84.0973Z" fill="#C0D8FB"/>
<path d="M132.885 89.7966L132.486 89.4829L132.757 89.1691L133.156 89.4829L132.885 89.7966Z" fill="#C0D8FB"/>
<path d="M136.367 89.797L135.968 89.4832L136.238 89.1651L136.638 89.4832L136.367 89.797Z" fill="#C0D8FB"/>
<path d="M139.835 89.797L139.436 89.4832L139.707 89.1651L140.106 89.4832L139.835 89.797Z" fill="#C0D8FB"/>
<path d="M143.272 89.797L142.873 89.4832L143.143 89.1651L143.543 89.4789L143.272 89.797Z" fill="#C0D8FB"/>
<path d="M142.696 86.96L142.297 86.6462L142.567 86.3325L142.967 86.6462L142.696 86.96Z" fill="#C0D8FB"/>
<path d="M139.255 86.9643L138.86 86.6462L139.13 86.3325L139.53 86.6462L139.255 86.9643Z" fill="#C0D8FB"/>
<path d="M131.371 206.649L132.907 206.342C132.907 206.342 129.239 191.792 129.733 190.58C130.143 189.589 134.374 188.855 136.455 187.113C136.899 186.737 137.24 186.327 137.428 185.866C138.537 183.168 136.728 181.153 136.728 181.153C136.728 181.153 132.958 182.024 129.546 183.493C127.106 184.534 124.854 185.9 124.223 187.472C122.721 191.28 131.371 206.649 131.371 206.649Z" fill="#E8945B"/>
<path d="M127.191 208.886C127.208 208.733 127.311 208.596 127.464 208.511C127.823 208.306 128.573 208.015 129.136 207.264C129.461 206.837 130.757 205.59 130.757 205.59C130.791 205.59 130.962 205.59 131.781 205.915C132.207 206.086 132.651 205.283 132.651 205.283C132.651 205.283 132.787 205.334 132.907 205.471C133.009 205.573 133.095 205.727 133.112 205.949C133.129 206.256 133.453 206.752 133.692 207.093C133.828 207.298 133.948 207.435 133.948 207.435C133.948 207.435 134.033 207.606 133.316 207.879L132.446 208.101C132.139 208.135 131.917 208.118 131.61 208.152C131.15 208.22 130.979 208.442 130.945 208.477V208.494L127.26 209.45C127.14 209.416 127.157 209.108 127.191 208.886Z" fill="#415DA5"/>
<path d="M119.94 209.467C120.316 209.467 120.623 209.16 120.623 208.784C120.623 200.262 113.696 193.329 105.182 193.329C103.22 193.329 101.292 193.688 99.484 194.405C99.1257 194.542 98.9551 194.951 99.0916 195.293C99.2281 195.652 99.6205 195.822 99.9788 195.686C101.634 195.037 103.374 194.695 105.165 194.695C112.928 194.695 119.241 201.014 119.241 208.784C119.258 209.16 119.565 209.467 119.94 209.467Z" fill="#2C3A64"/>
<path d="M107.52 208.784C107.52 207.52 106.496 206.496 105.234 206.496C103.971 206.496 102.948 207.52 102.948 208.784C102.948 210.048 103.971 211.072 105.234 211.072C106.496 211.072 107.52 210.048 107.52 208.784Z" fill="#415DA5"/>
<path d="M109.066 197.78L105.187 208.597L105.476 208.701L109.355 197.883L109.066 197.78Z" fill="#415DA5"/>
<path d="M116.187 213.651L116.306 213.378L105.336 208.664L98.1192 198.35L97.8633 198.52L105.131 208.903L105.165 208.921L116.187 213.651Z" fill="#415DA5"/>
<path d="M109.584 220.704L109.875 220.601C109.789 220.362 105.558 209.194 105.37 208.733L105.268 208.442L98.4436 219.252L98.6995 219.423L105.2 209.125C106.752 213.224 109.516 220.533 109.584 220.704Z" fill="#415DA5"/>
<path d="M117.379 205.746L105.206 207.842L105.258 208.145L117.431 206.049L117.379 205.746Z" fill="#415DA5"/>
<path d="M101.031 197.166L100.74 197.263L104.308 207.971L104.599 207.874L101.031 197.166Z" fill="#415DA5"/>
<path d="M105.251 208.938L105.302 208.921L116.46 203.251L116.324 202.978L105.217 208.613L93.2399 206.615L93.1887 206.923L105.251 208.938Z" fill="#415DA5"/>
<path d="M100.73 220.311C100.798 220.123 103.664 213.053 105.268 209.108L111.461 218.859L111.717 218.689L105.2 208.425L105.08 208.699C104.893 209.16 100.508 219.952 100.423 220.191L100.73 220.311Z" fill="#415DA5"/>
<path d="M105.251 208.63L105.206 208.934L117.222 210.717L117.267 210.413L105.251 208.63Z" fill="#415DA5"/>
<path d="M112.4 199.3L105.731 206.983L105.963 207.184L112.631 199.501L112.4 199.3Z" fill="#415DA5"/>
<path d="M104.996 209.635L104.69 209.661L105.625 220.91L105.931 220.885L104.996 209.635Z" fill="#415DA5"/>
<path d="M105.681 208.053L95.0676 215.419L95.2426 215.671L105.856 208.305L105.681 208.053Z" fill="#415DA5"/>
<path d="M114.037 217.118L114.259 216.896L105.387 207.947V196.283H105.08V208.067L114.037 217.118Z" fill="#415DA5"/>
<path d="M116.119 200.945C115.88 200.604 115.607 200.262 115.334 199.955C114.276 198.743 113.014 197.718 111.58 196.949C110.966 196.608 110.301 196.318 109.636 196.096C108.254 195.617 106.769 195.361 105.234 195.361C104.756 195.361 104.278 195.378 103.818 195.43C101.037 195.72 98.4946 196.881 96.4985 198.606C93.6493 201.065 91.8237 204.72 91.8237 208.767C91.8237 209.996 91.9943 211.209 92.3185 212.387C92.6085 213.446 93.0351 214.471 93.581 215.427C93.5981 215.461 93.6151 215.495 93.6322 215.512C94.7924 217.51 96.4473 219.184 98.4434 220.345C100.013 221.267 101.736 221.848 103.528 222.087C104.091 222.155 104.654 222.19 105.217 222.19C105.797 222.19 106.377 222.155 106.94 222.087C113.525 221.233 118.627 215.598 118.627 208.767C118.644 205.864 117.705 203.166 116.119 200.945ZM115.914 213.207C115.88 213.309 115.829 213.395 115.795 213.497C115.3 214.59 114.651 215.598 113.85 216.486C113.781 216.571 113.713 216.639 113.645 216.708C113.031 217.374 112.331 217.954 111.563 218.45C111.478 218.501 111.393 218.569 111.308 218.62C110.727 218.979 110.13 219.286 109.482 219.543C109.38 219.577 109.294 219.611 109.192 219.662C108.151 220.038 107.042 220.277 105.899 220.345C105.797 220.345 105.694 220.362 105.592 220.362C105.473 220.362 105.37 220.362 105.251 220.362C103.801 220.362 102.385 220.089 101.054 219.577C100.951 219.543 100.866 219.508 100.764 219.457C100.303 219.252 99.8424 219.03 99.4159 218.774C99.3477 218.74 99.2794 218.689 99.2112 218.655C99.1259 218.603 99.0406 218.552 98.9553 218.484C97.761 217.715 96.7373 216.725 95.9013 215.564C95.8502 215.495 95.799 215.41 95.7478 215.342C95.6966 215.256 95.6284 215.171 95.5772 215.085C95.4748 214.932 95.3724 214.761 95.2701 214.607C94.7071 213.634 94.2805 212.592 94.0246 211.499C93.8199 210.628 93.7005 209.706 93.7005 208.801C93.7005 208.203 93.7516 207.606 93.8369 207.042C93.854 206.94 93.8711 206.837 93.8881 206.735C94.4341 203.746 96.1402 201.133 98.5117 199.426C98.597 199.357 98.6823 199.306 98.7676 199.255C99.4671 198.777 100.218 198.367 101.02 198.059C101.122 198.025 101.207 197.991 101.31 197.957C102.504 197.53 103.767 197.274 105.097 197.257C105.148 197.257 105.2 197.257 105.251 197.257C105.302 197.257 105.353 197.257 105.404 197.257C106.65 197.274 107.844 197.479 108.953 197.872C108.987 197.889 109.004 197.889 109.038 197.906C109.141 197.94 109.226 197.974 109.328 198.008C109.84 198.196 110.318 198.435 110.796 198.691C111.29 198.965 111.751 199.255 112.195 199.596C112.28 199.665 112.365 199.716 112.434 199.784C112.86 200.126 113.27 200.501 113.645 200.911C114.02 201.304 114.361 201.731 114.669 202.158C114.959 202.568 115.232 203.012 115.47 203.456C115.522 203.541 115.573 203.644 115.607 203.729C115.948 204.429 116.238 205.181 116.426 205.949C116.443 206.052 116.477 206.154 116.494 206.256C116.682 207.076 116.784 207.93 116.784 208.818C116.784 209.347 116.75 209.86 116.682 210.355C116.665 210.457 116.648 210.56 116.631 210.662C116.494 211.533 116.238 212.387 115.914 213.207Z" fill="#202E51"/>
<path d="M137.692 185.758L129.811 210.434L131.144 210.86L139.024 186.184L137.692 185.758Z" fill="#739CF3"/>
<path d="M131.798 210.919L150.412 209.313L115.914 185.969L117.876 189.999L146.368 208.255L131.678 209.535L131.798 210.919Z" fill="#739CF3"/>
<path d="M129.29 209.826L130.467 209.074L116.153 186.122L114.498 187.847L129.29 209.826Z" fill="#739CF3"/>
<path d="M106.343 208.169L114.31 191.092L113.235 190.665C112.536 190.392 111.751 190.733 111.478 191.416L105.046 207.64L106.343 208.169Z" fill="#415DA5"/>
<path d="M114.31 191.092C115.47 188.103 117.381 183.39 117.364 183.441L116.204 182.673C116.153 182.758 116.102 182.809 113.082 190.665L114.31 191.092Z" fill="#415DA5"/>
<path d="M121.015 185.064C121.476 184.432 121.323 183.544 120.691 183.083C120.06 182.622 119.173 182.775 118.712 183.407C118.251 184.039 118.405 184.927 119.036 185.388C119.668 185.849 120.555 185.713 121.015 185.064Z" fill="#415DA5"/>
<path d="M115.641 181.358C116.101 180.726 115.948 179.838 115.317 179.377C114.685 178.916 113.798 179.07 113.338 179.701C112.877 180.333 113.031 181.221 113.662 181.682C114.31 182.143 115.197 181.99 115.641 181.358Z" fill="#415DA5"/>
<path d="M114.276 181.87L119.667 185.303L120.418 183.834L115.027 180.384L114.276 181.87Z" fill="#415DA5"/>
<path d="M123.165 214.215H126.185C126.543 214.215 126.833 213.924 126.833 213.566C126.833 213.207 126.543 212.917 126.185 212.917H123.165C122.807 212.917 122.517 213.207 122.517 213.566C122.517 213.924 122.807 214.215 123.165 214.215Z" fill="#415DA5"/>
<path d="M130.563 210.146L124.446 212.936L124.672 213.434L130.789 210.643L130.563 210.146Z" fill="#415DA5"/>
<path d="M150.667 208.784C150.667 207.52 149.643 206.496 148.381 206.496C147.118 206.496 146.095 207.52 146.095 208.784C146.095 210.048 147.118 211.072 148.381 211.072C149.643 211.072 150.667 210.048 150.667 208.784Z" fill="#415DA5"/>
<path d="M152.223 197.768L148.344 208.585L148.633 208.689L152.512 197.872L152.223 197.768Z" fill="#415DA5"/>
<path d="M159.334 213.651L159.454 213.378L148.483 208.664L141.284 198.35L141.028 198.52L148.279 208.903L148.33 208.921L159.334 213.651Z" fill="#415DA5"/>
<path d="M152.731 220.704L153.022 220.601C152.936 220.362 148.705 209.194 148.517 208.733L148.415 208.442L141.591 219.252L141.846 219.423L148.347 209.125C149.899 213.224 152.68 220.533 152.731 220.704Z" fill="#415DA5"/>
<path d="M160.525 205.747L148.352 207.842L148.404 208.145L160.577 206.049L160.525 205.747Z" fill="#415DA5"/>
<path d="M144.18 197.16L143.888 197.258L147.456 207.966L147.748 207.868L144.18 197.16Z" fill="#415DA5"/>
<path d="M148.415 208.938L148.449 208.921L159.624 203.251L159.471 202.978L148.364 208.613L136.387 206.615L136.336 206.923L148.415 208.938Z" fill="#415DA5"/>
<path d="M143.877 220.311C143.945 220.123 146.811 213.053 148.415 209.108L154.608 218.859L154.864 218.689L148.347 208.425L148.227 208.699C148.04 209.16 143.655 219.952 143.57 220.191L143.877 220.311Z" fill="#415DA5"/>
<path d="M148.399 208.642L148.354 208.946L160.369 210.735L160.414 210.431L148.399 208.642Z" fill="#415DA5"/>
<path d="M155.548 199.303L148.88 206.987L149.111 207.188L155.78 199.505L155.548 199.303Z" fill="#415DA5"/>
<path d="M148.162 209.635L147.855 209.66L148.791 220.91L149.097 220.885L148.162 209.635Z" fill="#415DA5"/>
<path d="M148.831 208.056L138.218 215.422L138.393 215.675L149.006 208.309L148.831 208.056Z" fill="#415DA5"/>
<path d="M157.184 217.118L157.406 216.896L148.534 207.947V196.283H148.227V208.067L157.184 217.118Z" fill="#415DA5"/>
<path d="M148.381 195.361C146.334 195.361 144.389 195.822 142.648 196.659C140.686 197.598 138.98 198.982 137.684 200.706C137.342 201.15 137.035 201.629 136.762 202.107C135.636 204.071 134.988 206.359 134.988 208.784C134.988 208.938 134.988 209.091 134.988 209.245C135.005 209.706 135.039 210.184 135.107 210.628C135.346 212.353 135.926 214.01 136.797 215.512C137.888 217.408 139.441 218.996 141.301 220.157C141.403 220.226 141.505 220.294 141.608 220.345C143.16 221.25 144.866 221.848 146.658 222.07C147.238 222.138 147.818 222.19 148.398 222.19C148.995 222.19 149.575 222.155 150.138 222.07C156.707 221.216 161.808 215.564 161.808 208.767C161.791 201.389 155.786 195.361 148.381 195.361ZM159.061 213.207C159.027 213.309 158.976 213.395 158.942 213.497C158.447 214.59 157.799 215.598 156.997 216.486C156.929 216.571 156.86 216.639 156.792 216.708C156.178 217.374 155.478 217.954 154.711 218.45C154.625 218.501 154.54 218.569 154.455 218.62C153.875 218.979 153.278 219.286 152.629 219.543C152.527 219.577 152.442 219.611 152.339 219.662C151.298 220.038 150.19 220.277 149.029 220.345C148.927 220.345 148.825 220.362 148.722 220.362C148.603 220.362 148.5 220.362 148.381 220.362C146.931 220.362 145.515 220.089 144.184 219.577C144.082 219.543 143.996 219.508 143.894 219.457C143.433 219.252 142.973 219.03 142.546 218.774C142.478 218.74 142.41 218.689 142.341 218.655C142.256 218.603 142.171 218.552 142.085 218.484C140.823 217.664 139.731 216.588 138.878 215.359C138.827 215.273 138.759 215.188 138.707 215.102C138.605 214.949 138.503 214.778 138.4 214.624C137.667 213.361 137.172 211.96 136.967 210.509C136.899 210.048 136.865 209.587 136.848 209.108C136.848 209.006 136.848 208.903 136.848 208.801C136.848 208.203 136.899 207.606 136.984 207.042C137.001 206.94 137.018 206.837 137.035 206.735C137.274 205.454 137.718 204.224 138.349 203.131C138.622 202.653 138.912 202.192 139.253 201.765C139.936 200.877 140.755 200.092 141.659 199.426C141.744 199.357 141.83 199.306 141.915 199.255C142.614 198.777 143.365 198.367 144.167 198.059C144.269 198.025 144.355 197.991 144.457 197.957C145.174 197.701 145.924 197.496 146.709 197.393C147.204 197.325 147.716 197.274 148.245 197.274C148.296 197.274 148.347 197.274 148.398 197.274C148.449 197.274 148.5 197.274 148.552 197.274C149.831 197.291 151.043 197.513 152.186 197.923C152.288 197.957 152.373 197.991 152.476 198.025C153.499 198.418 154.472 198.947 155.325 199.613C155.41 199.682 155.495 199.733 155.564 199.801C156.809 200.792 157.85 202.055 158.601 203.473C158.652 203.558 158.703 203.661 158.737 203.746C159.078 204.446 159.368 205.198 159.556 205.966C159.573 206.069 159.607 206.171 159.624 206.274C159.812 207.093 159.914 207.947 159.914 208.835C159.914 209.365 159.88 209.877 159.812 210.372C159.795 210.475 159.778 210.577 159.761 210.68C159.641 211.533 159.402 212.387 159.061 213.207Z" fill="#202E51"/>
<path d="M137.462 195.003C137.667 195.071 137.872 195.054 138.059 194.934C144.338 191.143 153.022 192.561 155.53 193.09C155.666 193.124 155.803 193.022 155.803 192.868V192.373C155.803 191.997 155.53 191.673 155.154 191.621C153.79 191.416 150.616 190.989 148.842 190.972C148.791 190.972 148.739 190.972 148.705 190.972C144.73 190.972 141.301 191.69 138.486 193.09C137.906 193.38 137.24 193.414 136.643 193.209L135.875 192.936C135.432 192.783 134.954 193.022 134.801 193.449C134.698 193.739 134.852 194.046 135.142 194.149L137.462 195.003Z" fill="#F99746"/>
<path d="M143.28 185.439C143.28 185.439 143.536 184.295 142.819 184.21C142.103 184.124 139.493 184.688 138.793 184.62C138.094 184.534 134.46 183.937 133.811 184.568C133.18 185.183 133.436 185.73 134.715 185.849C135.995 185.969 137.701 186.174 138.179 186.583C138.674 186.993 142.188 188.206 143.28 185.439Z" fill="#F99746"/>
<path d="M130.484 214.129C132.406 214.129 133.965 212.569 133.965 210.645C133.965 208.721 132.406 207.162 130.484 207.162C128.562 207.162 127.004 208.721 127.004 210.645C127.004 212.569 128.562 214.129 130.484 214.129Z" fill="#2C3A64"/>
<path d="M118.319 181.05C118.319 181.05 117.176 179.599 116.545 179.787C115.47 180.094 115.385 181.085 115.402 181.29C115.436 181.494 115.419 182.28 115.897 182.451C116.374 182.622 116.869 182.417 117.091 182.229C117.33 182.041 118.319 181.05 118.319 181.05Z" fill="#E8945B"/>
<path d="M116.392 179.872C116.392 179.872 116.545 180.777 117.637 181.068C118.729 181.358 125.485 178.506 127.089 177.72C127.959 177.293 129.204 174.886 130.16 172.785C130.382 172.273 130.603 171.778 130.791 171.334C131.269 170.224 131.576 169.404 131.576 169.404C131.576 168.294 130.365 168.738 129.256 169.233C128.914 169.387 127.157 168.652 126.696 169.54C126.475 169.967 126.202 169.916 125.98 170.377C125.127 172.256 124.342 174.39 124.171 174.903C123.881 175.825 116.392 179.872 116.392 179.872Z" fill="#E8945B"/>
<path d="M119.173 181.887C119.173 181.887 118.03 180.453 117.398 180.624C115.914 180.999 116.119 182.058 116.136 182.263C116.17 182.468 116.272 183.117 116.75 183.288C117.228 183.458 117.722 183.253 117.944 183.066C118.166 182.878 119.173 181.887 119.173 181.887Z" fill="#FFB27D"/>
<path d="M132.224 167.594L128.369 169.011C127.874 168.533 127.379 167.764 126.987 167.081C126.492 166.21 126.151 165.459 126.151 165.459L128.846 163.563L129.699 162.966C129.751 164.69 132.224 167.594 132.224 167.594Z" fill="#FFB27D"/>
<path d="M129.904 163.905C129.904 163.905 129.136 166.279 126.987 167.081C126.492 166.21 126.151 165.459 126.151 165.459L128.846 163.563L129.904 163.905Z" fill="#E8945B"/>
<path d="M124.939 165.391C124.939 165.391 129.699 166.142 130.126 163.154C130.552 160.182 131.439 158.269 128.42 157.655C125.4 157.057 124.649 158.099 124.257 159.072C123.881 160.045 123.711 165.117 124.939 165.391Z" fill="#FFB27D"/>
<path d="M131.201 157.125C131.201 157.125 130.979 157.176 130.808 157.347C130.791 156.698 130.16 156.049 130.16 156.049C130.467 156.425 130.365 157.142 130.365 157.142C129.46 155.605 125.093 156.818 124.683 156.92C124.274 157.023 123.984 156.408 123.984 156.408C123.335 156.972 123.097 158.338 123.625 159.243C124.154 160.148 125.895 161.463 126.406 161.207C126.901 160.951 126.901 161.48 126.884 162.197C126.85 162.932 128.113 164.144 129.017 164.332C129.733 164.469 129.785 163.99 129.989 163.666C130.04 163.58 130.092 163.512 130.16 163.461C131.132 162.573 131.678 160.814 131.456 159.089C131.371 158.406 131.081 157.825 130.928 157.535C130.979 157.433 131.098 157.228 131.201 157.125Z" fill="#2C3A64"/>
<path d="M129.546 183.51C129.597 183.732 130.126 185.508 131.491 185.969C132.378 186.276 134.545 187.01 136.455 187.147C136.899 186.771 137.24 186.362 137.428 185.9C138.537 183.202 136.728 181.187 136.728 181.187C136.728 181.187 132.975 182.041 129.546 183.51Z" fill="#2C3A64"/>
<path d="M140.38 177.225C140.38 177.225 144.235 181.682 140.704 186.686C137.155 191.69 131.388 195.737 131.064 197.513C130.45 200.962 126.765 208.101 125.025 211.636L123.523 211.055C123.523 211.055 126.338 194.319 127.345 192.321C128.351 190.323 133.521 180.948 133.521 180.948L140.38 177.225Z" fill="#FFB27D"/>
<path d="M125.946 170.172C126.321 170.292 127.225 170.633 127.464 171.043C127.72 171.453 130.365 170.309 130.672 169.233C129.921 168.396 128.624 167.696 127.857 167.935C127.413 168.072 126.696 169.028 125.946 170.172Z" fill="#5885D6"/>
<path d="M141.147 178.608C141.147 178.608 136.131 182.178 132.787 181.99C132.787 181.99 130.586 185.747 130.092 186.976C130.092 186.976 135.79 189.828 138.759 189.299C138.759 189.299 142.614 185.542 142.393 182.912C142.171 180.282 141.147 178.608 141.147 178.608Z" fill="#35488B"/>
<path d="M127.396 171.88L128.59 173.588L128.693 173.81L131.184 179.514L132.463 182.417C133.316 182.622 134.903 182.485 135.602 182.229C139.475 180.914 141.147 178.608 141.147 178.608C138.895 172.734 135.79 168.721 135.159 168.003C134.05 166.808 131.167 165.818 131.167 165.818C130.382 166.637 127.55 168.072 127.55 168.072C126.918 168.55 127.396 171.88 127.396 171.88Z" fill="#739AF0"/>
<path d="M128.693 173.81L131.184 179.514C133.077 175.688 131.883 170.121 131.883 170.121C131.883 170.121 128.829 172.768 128.727 172.973C128.71 173.007 128.693 173.315 128.693 173.81Z" fill="#5885D6"/>
<path d="M117.228 180.726C117.228 180.726 117.381 181.631 118.473 181.921C119.565 182.212 126.321 179.36 127.925 178.574C128.795 178.147 130.041 175.739 130.996 173.639C131.218 173.127 131.44 172.631 131.627 172.187C132.105 171.077 132.412 170.258 132.412 170.258C132.412 169.148 129.802 167.645 128.71 168.157C128.369 168.311 127.925 168.994 127.464 169.899C127.243 170.326 127.038 170.77 126.816 171.248C125.963 173.127 125.178 175.261 125.008 175.774C124.735 176.662 117.228 180.726 117.228 180.726Z" fill="#FFB27D"/>
<path d="M126.833 171.248C127.84 171.709 129.648 172.597 131.013 173.639C131.235 173.127 131.457 172.631 131.644 172.187C132.122 171.077 132.429 170.258 132.429 170.258C132.429 169.148 129.819 167.645 128.727 168.157C128.386 168.311 127.942 168.994 127.481 169.899C127.26 170.326 127.055 170.77 126.833 171.248Z" fill="#739AF0"/>
<path d="M125.604 213.002H124.7C124.393 212.968 124.171 212.882 123.864 212.848C123.404 212.797 123.182 212.968 123.131 213.002H119.309C119.207 212.882 119.309 212.592 119.394 212.387C119.463 212.251 119.582 212.148 119.753 212.097C120.162 211.994 120.947 211.909 121.68 211.311C122.09 210.987 123.66 210.099 123.66 210.099C123.694 210.099 123.864 210.15 124.581 210.68C124.956 210.953 125.587 210.287 125.587 210.287C125.587 210.287 125.707 210.372 125.792 210.543C125.86 210.662 125.912 210.85 125.877 211.055C125.826 211.363 125.997 211.926 126.15 212.302C126.236 212.541 126.321 212.695 126.321 212.695C126.321 212.695 126.372 212.917 125.604 213.002Z" fill="#739CF3"/>
<path d="M125.809 210.56C125.588 210.697 125.144 210.953 124.837 210.987C124.427 211.038 123.677 210.116 123.677 210.116C123.711 210.116 123.881 210.167 124.598 210.697C124.973 210.97 125.605 210.304 125.605 210.304C125.605 210.304 125.724 210.406 125.809 210.56Z" fill="#415DA5"/>
<path d="M125.604 213.002H124.7C124.393 212.968 124.171 212.882 123.864 212.848C123.404 212.797 123.182 212.968 123.131 213.002H119.309C119.207 212.882 119.309 212.592 119.394 212.387C119.514 212.302 119.548 212.78 119.599 212.865C119.667 212.951 122.704 212.899 122.892 212.78C123.062 212.66 123.591 212.473 124.325 212.626C124.973 212.763 125.912 212.421 126.15 212.319C126.236 212.558 126.321 212.712 126.321 212.712C126.321 212.712 126.372 212.917 125.604 213.002Z" fill="#415DA5"/>
<path d="M281.412 210.762L282.948 210.455C282.948 210.455 279.279 195.905 279.774 194.693C280.184 193.702 284.415 192.968 286.496 191.226C286.94 190.85 287.281 190.44 287.469 189.979C288.578 187.281 286.769 185.266 286.769 185.266C286.769 185.266 282.999 186.137 279.586 187.606C277.147 188.647 274.895 190.014 274.263 191.585C272.762 195.393 281.412 210.762 281.412 210.762Z" fill="#E8945B"/>
<path d="M277.232 212.999C277.249 212.846 277.351 212.709 277.505 212.624C277.863 212.419 278.614 212.129 279.177 211.377C279.501 210.95 280.797 209.704 280.797 209.704C280.832 209.704 281.002 209.704 281.821 210.028C282.248 210.199 282.691 209.396 282.691 209.396C282.691 209.396 282.828 209.447 282.947 209.584C283.05 209.686 283.135 209.84 283.152 210.062C283.169 210.37 283.493 210.865 283.732 211.206C283.868 211.411 283.988 211.548 283.988 211.548C283.988 211.548 284.073 211.719 283.357 211.992L282.486 212.214C282.179 212.248 281.958 212.231 281.651 212.265C281.19 212.333 281.019 212.555 280.985 212.59V212.607L277.3 213.563C277.18 213.529 277.198 213.221 277.232 212.999Z" fill="#415DA5"/>
<path d="M269.981 213.58C270.356 213.58 270.663 213.273 270.663 212.897C270.663 204.375 263.736 197.442 255.223 197.442C253.261 197.442 251.333 197.801 249.525 198.518C249.166 198.655 248.996 199.064 249.132 199.406C249.269 199.765 249.661 199.935 250.019 199.799C251.674 199.15 253.414 198.808 255.206 198.808C262.969 198.808 269.281 205.127 269.281 212.897C269.298 213.273 269.605 213.58 269.981 213.58Z" fill="#2C3A64"/>
<path d="M257.56 212.897C257.56 211.633 256.536 210.609 255.274 210.609C254.011 210.609 252.988 211.633 252.988 212.897C252.988 214.161 254.011 215.185 255.274 215.185C256.536 215.185 257.56 214.161 257.56 212.897Z" fill="#415DA5"/>
<path d="M259.106 201.893L255.228 212.71L255.517 212.814L259.395 201.997L259.106 201.893Z" fill="#415DA5"/>
<path d="M266.227 217.764L266.347 217.491L255.376 212.777L248.159 202.463L247.904 202.634L255.172 213.017L255.206 213.034L266.227 217.764Z" fill="#415DA5"/>
<path d="M259.624 224.817L259.915 224.714C259.829 224.475 255.598 213.307 255.41 212.846L255.308 212.555L248.484 223.365L248.74 223.536L255.24 213.239C256.792 217.337 259.556 224.646 259.624 224.817Z" fill="#415DA5"/>
<path d="M267.418 209.86L255.245 211.955L255.297 212.258L267.471 210.162L267.418 209.86Z" fill="#415DA5"/>
<path d="M251.071 201.279L250.78 201.376L254.348 212.084L254.639 211.987L251.071 201.279Z" fill="#415DA5"/>
<path d="M255.291 213.051L255.342 213.034L266.5 207.364L266.364 207.091L255.257 212.726L243.28 210.728L243.229 211.036L255.291 213.051Z" fill="#415DA5"/>
<path d="M250.77 224.424C250.838 224.236 253.704 217.166 255.308 213.221L261.501 222.973L261.757 222.802L255.24 212.538L255.121 212.812C254.933 213.273 250.548 224.065 250.463 224.305L250.77 224.424Z" fill="#415DA5"/>
<path d="M255.291 212.743L255.246 213.047L267.263 214.83L267.308 214.526L255.291 212.743Z" fill="#415DA5"/>
<path d="M262.439 203.413L255.771 211.096L256.003 211.298L262.671 203.614L262.439 203.413Z" fill="#415DA5"/>
<path d="M255.036 213.748L254.73 213.774L255.665 225.023L255.971 224.998L255.036 213.748Z" fill="#415DA5"/>
<path d="M255.722 212.166L245.108 219.532L245.283 219.785L255.897 212.419L255.722 212.166Z" fill="#415DA5"/>
<path d="M264.077 221.231L264.299 221.009L255.427 212.06V200.396H255.12V212.18L264.077 221.231Z" fill="#415DA5"/>
<path d="M266.159 205.059C265.92 204.717 265.647 204.375 265.374 204.068C264.316 202.856 263.054 201.831 261.621 201.063C261.007 200.721 260.341 200.431 259.676 200.209C258.294 199.73 256.81 199.474 255.274 199.474C254.796 199.474 254.319 199.491 253.858 199.543C251.077 199.833 248.535 200.994 246.539 202.719C243.69 205.178 241.864 208.833 241.864 212.88C241.864 214.109 242.035 215.322 242.359 216.5C242.649 217.559 243.075 218.584 243.621 219.54C243.638 219.574 243.655 219.608 243.672 219.625C244.833 221.623 246.488 223.297 248.484 224.458C250.053 225.38 251.777 225.961 253.568 226.2C254.131 226.268 254.694 226.303 255.257 226.303C255.837 226.303 256.417 226.268 256.98 226.2C263.566 225.346 268.667 219.711 268.667 212.88C268.684 209.977 267.746 207.279 266.159 205.059ZM265.954 217.32C265.92 217.422 265.869 217.508 265.835 217.61C265.34 218.703 264.692 219.711 263.89 220.599C263.822 220.684 263.753 220.753 263.685 220.821C263.071 221.487 262.371 222.067 261.604 222.563C261.518 222.614 261.433 222.682 261.348 222.734C260.768 223.092 260.171 223.4 259.522 223.656C259.42 223.69 259.335 223.724 259.232 223.775C258.191 224.151 257.083 224.39 255.939 224.458C255.837 224.458 255.735 224.475 255.632 224.475C255.513 224.475 255.411 224.475 255.291 224.475C253.841 224.475 252.425 224.202 251.094 223.69C250.992 223.656 250.906 223.622 250.804 223.57C250.343 223.365 249.883 223.143 249.456 222.887C249.388 222.853 249.32 222.802 249.251 222.768C249.166 222.716 249.081 222.665 248.996 222.597C247.801 221.828 246.778 220.838 245.942 219.677C245.89 219.608 245.839 219.523 245.788 219.455C245.737 219.369 245.669 219.284 245.617 219.199C245.515 219.045 245.413 218.874 245.31 218.72C244.747 217.747 244.321 216.705 244.065 215.612C243.86 214.741 243.741 213.819 243.741 212.914C243.741 212.316 243.792 211.719 243.877 211.155C243.894 211.053 243.911 210.95 243.928 210.848C244.474 207.859 246.18 205.246 248.552 203.539C248.637 203.47 248.723 203.419 248.808 203.368C249.507 202.89 250.258 202.48 251.06 202.173C251.162 202.138 251.248 202.104 251.35 202.07C252.544 201.643 253.807 201.387 255.138 201.37C255.189 201.37 255.24 201.37 255.291 201.37C255.342 201.37 255.393 201.37 255.445 201.37C256.69 201.387 257.884 201.592 258.993 201.985C259.027 202.002 259.045 202.002 259.079 202.019C259.181 202.053 259.266 202.087 259.369 202.121C259.881 202.309 260.358 202.548 260.836 202.804C261.331 203.078 261.791 203.368 262.235 203.709C262.32 203.778 262.406 203.829 262.474 203.897C262.9 204.239 263.31 204.615 263.685 205.024C264.06 205.417 264.402 205.844 264.709 206.271C264.999 206.681 265.272 207.125 265.511 207.569C265.562 207.654 265.613 207.757 265.647 207.842C265.988 208.542 266.278 209.294 266.466 210.062C266.483 210.165 266.517 210.267 266.534 210.37C266.722 211.189 266.824 212.043 266.824 212.931C266.824 213.461 266.79 213.973 266.722 214.468C266.705 214.571 266.688 214.673 266.671 214.776C266.534 215.646 266.278 216.5 265.954 217.32Z" fill="#202E51"/>
<path d="M287.733 189.871L279.852 214.547L281.184 214.973L289.065 190.298L287.733 189.871Z" fill="#739CF3"/>
<path d="M281.838 215.032L300.452 213.426L265.955 190.082L267.917 194.112L296.409 212.368L281.719 213.648L281.838 215.032Z" fill="#739CF3"/>
<path d="M279.33 213.939L280.508 213.187L266.193 190.236L264.538 191.96L279.33 213.939Z" fill="#739CF3"/>
<path d="M256.383 212.282L264.35 195.205L263.276 194.778C262.576 194.505 261.791 194.846 261.518 195.529L255.086 211.753L256.383 212.282Z" fill="#415DA5"/>
<path d="M264.35 195.205C265.511 192.216 267.421 187.503 267.404 187.554L266.244 186.786C266.193 186.871 266.142 186.923 263.122 194.778L264.35 195.205Z" fill="#415DA5"/>
<path d="M271.055 189.177C271.516 188.545 271.363 187.657 270.731 187.196C270.1 186.735 269.213 186.888 268.752 187.52C268.292 188.152 268.445 189.04 269.076 189.501C269.708 189.962 270.595 189.826 271.055 189.177Z" fill="#415DA5"/>
<path d="M265.682 185.471C266.142 184.839 265.989 183.951 265.357 183.49C264.726 183.029 263.839 183.183 263.378 183.814C262.918 184.446 263.071 185.334 263.703 185.795C264.351 186.257 265.238 186.103 265.682 185.471Z" fill="#415DA5"/>
<path d="M264.316 185.983L269.708 189.416L270.458 187.947L265.067 184.498L264.316 185.983Z" fill="#415DA5"/>
<path d="M273.205 218.328H276.225C276.584 218.328 276.874 218.037 276.874 217.679C276.874 217.32 276.584 217.03 276.225 217.03H273.205C272.847 217.03 272.557 217.32 272.557 217.679C272.557 218.037 272.847 218.328 273.205 218.328Z" fill="#415DA5"/>
<path d="M280.602 214.259L274.485 217.049L274.712 217.547L280.829 214.756L280.602 214.259Z" fill="#415DA5"/>
<path d="M300.708 212.897C300.708 211.633 299.684 210.609 298.422 210.609C297.159 210.609 296.135 211.633 296.135 212.897C296.135 214.161 297.159 215.185 298.422 215.185C299.684 215.185 300.708 214.161 300.708 212.897Z" fill="#415DA5"/>
<path d="M302.263 201.881L298.385 212.698L298.674 212.802L302.552 201.985L302.263 201.881Z" fill="#415DA5"/>
<path d="M309.375 217.764L309.495 217.491L298.524 212.777L291.325 202.463L291.069 202.634L298.32 213.017L298.371 213.034L309.375 217.764Z" fill="#415DA5"/>
<path d="M302.772 224.817L303.063 224.714C302.977 224.475 298.746 213.307 298.558 212.846L298.456 212.555L291.632 223.365L291.888 223.536L298.388 213.239C299.94 217.337 302.721 224.646 302.772 224.817Z" fill="#415DA5"/>
<path d="M310.565 209.86L298.392 211.955L298.444 212.258L310.618 210.163L310.565 209.86Z" fill="#415DA5"/>
<path d="M294.22 201.274L293.929 201.371L297.497 212.079L297.788 211.981L294.22 201.274Z" fill="#415DA5"/>
<path d="M298.456 213.051L298.49 213.034L309.665 207.364L309.512 207.091L298.405 212.726L286.428 210.728L286.377 211.036L298.456 213.051Z" fill="#415DA5"/>
<path d="M293.918 224.424C293.986 224.236 296.852 217.166 298.456 213.221L304.649 222.973L304.905 222.802L298.388 212.538L298.268 212.812C298.081 213.273 293.696 224.065 293.611 224.305L293.918 224.424Z" fill="#415DA5"/>
<path d="M298.44 212.755L298.395 213.059L310.41 214.848L310.455 214.544L298.44 212.755Z" fill="#415DA5"/>
<path d="M305.589 203.416L298.92 211.1L299.152 211.301L305.821 203.618L305.589 203.416Z" fill="#415DA5"/>
<path d="M298.203 213.748L297.897 213.773L298.832 225.023L299.139 224.998L298.203 213.748Z" fill="#415DA5"/>
<path d="M298.872 212.169L288.258 219.535L288.433 219.788L299.047 212.422L298.872 212.169Z" fill="#415DA5"/>
<path d="M307.225 221.231L307.447 221.009L298.575 212.06V200.396H298.268V212.18L307.225 221.231Z" fill="#415DA5"/>
<path d="M298.422 199.474C296.374 199.474 294.429 199.935 292.689 200.772C290.727 201.711 289.021 203.095 287.724 204.819C287.383 205.264 287.076 205.742 286.803 206.22C285.677 208.184 285.029 210.472 285.029 212.897C285.029 213.051 285.029 213.204 285.029 213.358C285.046 213.819 285.08 214.297 285.148 214.741C285.387 216.466 285.967 218.123 286.837 219.625C287.929 221.521 289.482 223.109 291.341 224.27C291.444 224.339 291.546 224.407 291.649 224.458C293.201 225.363 294.907 225.961 296.699 226.183C297.279 226.251 297.859 226.303 298.439 226.303C299.036 226.303 299.616 226.268 300.179 226.183C306.748 225.329 311.849 219.677 311.849 212.88C311.832 205.503 305.826 199.474 298.422 199.474ZM309.102 217.32C309.068 217.422 309.017 217.508 308.983 217.61C308.488 218.703 307.84 219.711 307.038 220.599C306.969 220.684 306.901 220.753 306.833 220.821C306.219 221.487 305.519 222.067 304.751 222.563C304.666 222.614 304.581 222.682 304.496 222.734C303.915 223.092 303.318 223.4 302.67 223.656C302.568 223.69 302.482 223.724 302.38 223.775C301.339 224.151 300.23 224.39 299.07 224.458C298.968 224.458 298.865 224.475 298.763 224.475C298.644 224.475 298.541 224.475 298.422 224.475C296.972 224.475 295.556 224.202 294.225 223.69C294.122 223.656 294.037 223.622 293.935 223.57C293.474 223.365 293.013 223.143 292.587 222.887C292.519 222.853 292.45 222.802 292.382 222.768C292.297 222.716 292.212 222.665 292.126 222.597C290.864 221.777 289.772 220.701 288.919 219.472C288.868 219.386 288.799 219.301 288.748 219.216C288.646 219.062 288.543 218.891 288.441 218.737C287.707 217.474 287.213 216.073 287.008 214.622C286.94 214.161 286.906 213.7 286.888 213.221C286.888 213.119 286.888 213.017 286.888 212.914C286.888 212.316 286.94 211.719 287.025 211.155C287.042 211.053 287.059 210.95 287.076 210.848C287.315 209.567 287.759 208.337 288.39 207.244C288.663 206.766 288.953 206.305 289.294 205.878C289.977 204.99 290.795 204.205 291.7 203.539C291.785 203.47 291.87 203.419 291.956 203.368C292.655 202.89 293.406 202.48 294.208 202.173C294.31 202.138 294.395 202.104 294.498 202.07C295.214 201.814 295.965 201.609 296.75 201.507C297.245 201.438 297.756 201.387 298.285 201.387C298.336 201.387 298.388 201.387 298.439 201.387C298.49 201.387 298.541 201.387 298.592 201.387C299.872 201.404 301.083 201.626 302.226 202.036C302.329 202.07 302.414 202.104 302.516 202.138C303.54 202.531 304.513 203.061 305.366 203.727C305.451 203.795 305.536 203.846 305.605 203.914C306.85 204.905 307.891 206.169 308.641 207.586C308.693 207.671 308.744 207.774 308.778 207.859C309.119 208.559 309.409 209.311 309.597 210.079C309.614 210.182 309.648 210.284 309.665 210.387C309.853 211.206 309.955 212.06 309.955 212.948C309.955 213.478 309.921 213.99 309.853 214.485C309.836 214.588 309.819 214.69 309.802 214.793C309.682 215.646 309.443 216.5 309.102 217.32Z" fill="#202E51"/>
<path d="M287.503 199.116C287.707 199.184 287.912 199.167 288.1 199.047C294.378 195.256 303.062 196.674 305.57 197.203C305.707 197.237 305.843 197.135 305.843 196.981V196.486C305.843 196.11 305.57 195.786 305.195 195.734C303.83 195.529 300.657 195.103 298.882 195.086C298.831 195.086 298.78 195.086 298.746 195.086C294.771 195.086 291.341 195.803 288.526 197.203C287.946 197.493 287.281 197.528 286.684 197.323L285.916 197.049C285.472 196.896 284.995 197.135 284.841 197.562C284.739 197.852 284.892 198.159 285.182 198.262L287.503 199.116Z" fill="#F99746"/>
<path d="M293.321 189.552C293.321 189.552 293.577 188.408 292.86 188.323C292.143 188.238 289.533 188.801 288.834 188.733C288.134 188.647 284.5 188.05 283.852 188.682C283.22 189.296 283.476 189.843 284.756 189.962C286.036 190.082 287.742 190.287 288.219 190.697C288.714 191.106 292.229 192.319 293.321 189.552Z" fill="#F99746"/>
<path d="M280.525 218.242C282.447 218.242 284.005 216.682 284.005 214.758C284.005 212.834 282.447 211.275 280.525 211.275C278.602 211.275 277.044 212.834 277.044 214.758C277.044 216.682 278.602 218.242 280.525 218.242Z" fill="#2C3A64"/>
<path d="M268.36 185.164C268.36 185.164 267.217 183.712 266.586 183.9C265.511 184.207 265.426 185.198 265.443 185.403C265.477 185.608 265.46 186.393 265.937 186.564C266.415 186.735 266.91 186.53 267.132 186.342C267.371 186.154 268.36 185.164 268.36 185.164Z" fill="#E8945B"/>
<path d="M266.432 183.985C266.432 183.985 266.586 184.89 267.678 185.181C268.77 185.471 275.526 182.619 277.13 181.834C278 181.407 279.245 178.999 280.201 176.898C280.422 176.386 280.644 175.891 280.832 175.447C281.31 174.337 281.617 173.517 281.617 173.517C281.617 172.407 280.405 172.851 279.296 173.346C278.955 173.5 277.198 172.766 276.737 173.654C276.515 174.08 276.242 174.029 276.021 174.49C275.168 176.369 274.383 178.503 274.212 179.016C273.922 179.938 266.432 183.985 266.432 183.985Z" fill="#E8945B"/>
<path d="M269.213 186C269.213 186 268.07 184.566 267.439 184.737C265.954 185.112 266.159 186.171 266.176 186.376C266.21 186.581 266.313 187.23 266.79 187.401C267.268 187.571 267.763 187.367 267.985 187.179C268.207 186.991 269.213 186 269.213 186Z" fill="#FFB27D"/>
<path d="M282.265 171.707L278.409 173.124C277.914 172.646 277.419 171.878 277.027 171.194C276.532 170.323 276.191 169.572 276.191 169.572L278.887 167.676L279.74 167.079C279.791 168.804 282.265 171.707 282.265 171.707Z" fill="#FFB27D"/>
<path d="M279.944 168.018C279.944 168.018 279.177 170.392 277.027 171.194C276.532 170.323 276.191 169.572 276.191 169.572L278.887 167.677L279.944 168.018Z" fill="#E8945B"/>
<path d="M274.98 169.504C274.98 169.504 279.74 170.255 280.166 167.267C280.593 164.295 281.48 162.383 278.46 161.768C275.44 161.17 274.69 162.212 274.297 163.185C273.922 164.159 273.751 169.23 274.98 169.504Z" fill="#FFB27D"/>
<path d="M281.241 161.238C281.241 161.238 281.02 161.29 280.849 161.46C280.832 160.811 280.201 160.162 280.201 160.162C280.508 160.538 280.405 161.255 280.405 161.255C279.501 159.718 275.133 160.931 274.724 161.033C274.315 161.136 274.025 160.521 274.025 160.521C273.376 161.085 273.137 162.451 273.666 163.356C274.195 164.261 275.935 165.576 276.447 165.32C276.942 165.064 276.942 165.593 276.925 166.31C276.891 167.045 278.153 168.257 279.058 168.445C279.774 168.582 279.825 168.103 280.03 167.779C280.081 167.694 280.132 167.625 280.201 167.574C281.173 166.686 281.719 164.927 281.497 163.202C281.412 162.519 281.122 161.939 280.968 161.648C281.02 161.546 281.139 161.341 281.241 161.238Z" fill="#2C3A64"/>
<path d="M279.586 187.623C279.638 187.845 280.167 189.621 281.531 190.082C282.419 190.389 284.585 191.124 286.496 191.26C286.94 190.885 287.281 190.475 287.469 190.014C288.578 187.315 286.769 185.3 286.769 185.3C286.769 185.3 283.016 186.154 279.586 187.623Z" fill="#2C3A64"/>
<path d="M290.42 181.338C290.42 181.338 294.276 185.795 290.744 190.799C287.196 195.803 281.429 199.85 281.105 201.626C280.491 205.076 276.806 212.214 275.065 215.749L273.564 215.168C273.564 215.168 276.379 198.433 277.386 196.435C278.392 194.436 283.562 185.061 283.562 185.061L290.42 181.338Z" fill="#FFB27D"/>
<path d="M275.986 174.285C276.362 174.405 277.266 174.746 277.505 175.156C277.761 175.566 280.405 174.422 280.712 173.346C279.962 172.509 278.665 171.809 277.897 172.048C277.454 172.185 276.737 173.141 275.986 174.285Z" fill="#5885D6"/>
<path d="M291.188 182.722C291.188 182.722 286.172 186.291 282.828 186.103C282.828 186.103 280.627 189.86 280.132 191.089C280.132 191.089 285.83 193.941 288.799 193.412C288.799 193.412 292.655 189.655 292.433 187.025C292.211 184.395 291.188 182.722 291.188 182.722Z" fill="#35488B"/>
<path d="M277.437 175.993L278.631 177.701L278.733 177.923L281.224 183.627L282.504 186.53C283.357 186.735 284.944 186.598 285.643 186.342C289.516 185.027 291.188 182.722 291.188 182.722C288.936 176.847 285.831 172.834 285.199 172.117C284.09 170.921 281.207 169.931 281.207 169.931C280.422 170.75 277.59 172.185 277.59 172.185C276.959 172.663 277.437 175.993 277.437 175.993Z" fill="#739AF0"/>
<path d="M278.733 177.923L281.224 183.627C283.118 179.801 281.924 174.234 281.924 174.234C281.924 174.234 278.87 176.881 278.767 177.086C278.75 177.12 278.733 177.428 278.733 177.923Z" fill="#5885D6"/>
<path d="M267.268 184.839C267.268 184.839 267.422 185.744 268.514 186.035C269.605 186.325 276.362 183.473 277.965 182.687C278.835 182.26 280.081 179.853 281.036 177.752C281.258 177.24 281.48 176.744 281.668 176.3C282.145 175.19 282.452 174.371 282.452 174.371C282.452 173.261 279.842 171.758 278.75 172.27C278.409 172.424 277.965 173.107 277.505 174.012C277.283 174.439 277.078 174.883 276.856 175.361C276.003 177.24 275.219 179.374 275.048 179.887C274.775 180.775 267.268 184.839 267.268 184.839Z" fill="#FFB27D"/>
<path d="M276.874 175.361C277.88 175.822 279.689 176.71 281.053 177.752C281.275 177.24 281.497 176.745 281.685 176.301C282.162 175.19 282.47 174.371 282.47 174.371C282.47 173.261 279.859 171.758 278.767 172.27C278.426 172.424 277.982 173.107 277.522 174.012C277.3 174.439 277.095 174.883 276.874 175.361Z" fill="#739AF0"/>
<path d="M275.645 217.115H274.741C274.434 217.081 274.212 216.995 273.905 216.961C273.444 216.91 273.222 217.081 273.171 217.115H269.349C269.247 216.995 269.349 216.705 269.435 216.5C269.503 216.364 269.622 216.261 269.793 216.21C270.203 216.108 270.987 216.022 271.721 215.424C272.13 215.1 273.7 214.212 273.7 214.212C273.734 214.212 273.905 214.263 274.621 214.793C274.997 215.066 275.628 214.4 275.628 214.4C275.628 214.4 275.747 214.485 275.833 214.656C275.901 214.776 275.952 214.963 275.918 215.168C275.867 215.476 276.037 216.039 276.191 216.415C276.276 216.654 276.362 216.808 276.362 216.808C276.362 216.808 276.413 217.03 275.645 217.115Z" fill="#739CF3"/>
<path d="M275.85 214.673C275.628 214.81 275.184 215.066 274.877 215.1C274.468 215.151 273.717 214.229 273.717 214.229C273.751 214.229 273.922 214.28 274.638 214.81C275.014 215.083 275.645 214.417 275.645 214.417C275.645 214.417 275.764 214.519 275.85 214.673Z" fill="#415DA5"/>
<path d="M275.645 217.115H274.741C274.434 217.081 274.212 216.995 273.905 216.961C273.444 216.91 273.222 217.081 273.171 217.115H269.349C269.247 216.995 269.349 216.705 269.435 216.5C269.554 216.415 269.588 216.893 269.64 216.978C269.708 217.064 272.745 217.013 272.932 216.893C273.103 216.773 273.632 216.586 274.365 216.739C275.014 216.876 275.952 216.534 276.191 216.432C276.276 216.671 276.362 216.825 276.362 216.825C276.362 216.825 276.413 217.03 275.645 217.115Z" fill="#415DA5"/>
<path d="M3.9419 192.356L5.56269 191.109H2.64526L3.9419 192.356Z" fill="#1D3F77"/>
<path d="M83.5147 201.919L84.6237 201.048H80.9556L83.5147 201.919Z" fill="#1D3F77"/>
</svg>
