<svg width="258" height="232" viewBox="0 0 258 232" fill="none" xmlns="http://www.w3.org/2000/svg">
<path d="M258 145.433C258 205.982 190.506 232 129 232C95.7813 232 46.6355 220.973 21.5 197.291C0.0956201 177.125 0 146.588 0 118.74C0 89.8382 22.6734 61.4739 53.064 39.7189C86.342 15.897 128.873 0 161.021 0C222.528 0 258 84.8828 258 145.433Z" fill="#C6EAFE"/>
<path d="M156.17 48.0716C156.536 48.4515 156.385 48.9279 156.387 49.3623C156.4 52.5209 156.427 55.6801 156.375 58.8379C156.359 59.767 156.634 60.2106 157.553 60.4978C162.908 62.1719 168.04 64.3927 172.965 67.0766C174.828 68.0922 176.69 69.1212 178.395 70.4106C179.121 70.9592 179.177 71.3414 178.429 71.8857C175.858 73.7546 174.768 76.2806 175.099 79.4452C175.323 81.5817 177.692 83.593 180.25 83.7613C180.332 83.7666 180.414 83.7659 180.496 83.763C181.077 83.7427 181.819 83.7326 182.057 84.2111C182.271 84.642 181.669 85.118 181.342 85.5186C179.075 88.2995 178.867 94.2939 182.734 96.4882C184.872 97.7011 189.346 97.7018 191.306 96.1674C193.638 94.3422 194.409 91.913 193.895 88.967C193.583 87.1786 193.098 85.5553 191.75 84.2795C191.575 84.1136 191.357 83.9313 191.455 83.6544C191.568 83.3392 191.863 83.3096 192.159 83.2678C192.814 83.1754 193.243 83.5142 193.642 83.9603C196.181 86.8008 198.394 89.8882 200.431 93.0964C202.982 97.1133 205.196 101.318 206.789 105.808C208.481 110.577 209.746 115.454 210.594 120.462C211.436 125.43 211.443 130.415 211.228 135.387C211.021 140.144 210.2 144.858 208.865 149.456C208.467 150.826 208.048 152.19 207.662 153.563C207.423 154.415 207.005 154.782 206.046 154.522C204.446 154.086 202.867 154.683 201.337 154.966C194.567 156.217 187.793 157.476 181.108 159.131C178.704 159.726 176.262 160.341 174.243 161.956C172.071 163.693 171.265 166.06 171.47 168.671C171.656 171.026 172.217 173.345 174.179 175.043C176.099 176.704 178.265 177.311 180.752 176.933C185.928 176.148 190.88 174.414 195.984 173.326C196.368 173.244 196.791 172.919 197.092 173.395C197.39 173.867 196.895 174.174 196.681 174.447C193.846 178.053 190.739 181.39 187.315 184.465C181.784 189.431 175.605 193.349 168.913 196.511C168.727 196.599 168.552 196.753 168.36 196.774C166.53 196.98 166.231 198.155 166.483 199.691C166.321 199.763 166.192 199.724 166.096 199.577C165.642 198.352 165.964 197.08 165.879 195.833C165.835 195.184 165.832 194.532 165.853 193.882C165.882 193.015 165.533 192.616 164.623 192.665C163.65 192.717 162.671 192.684 161.695 192.673C161.17 192.667 160.627 192.71 160.207 192.285C159.893 191.803 159.967 191.258 159.967 190.731C159.963 173.855 159.963 156.978 159.965 140.102C159.965 139.652 159.939 139.199 160.085 138.763C160.321 138.19 160.44 137.596 160.439 136.97C160.435 134.594 160.451 132.217 160.431 129.841C160.42 128.523 160.326 128.442 159.029 128.437C157.636 128.432 156.243 128.427 154.85 128.443C154.24 128.45 153.61 128.506 153.09 128.069C152.58 127.467 152.783 126.902 153.258 126.432C155.304 124.406 155.88 121.909 155.804 119.124C155.723 116.134 155.793 113.14 155.782 110.148C155.778 108.84 155.688 108.781 154.388 108.732C153.674 108.705 152.894 108.924 152.298 108.294C152.016 107.763 152.06 107.184 152.058 106.616C152.046 102.457 152.055 98.2984 152.062 94.1395C152.064 93.3795 151.954 92.558 152.729 92.0322C152.883 91.984 152.676 92.0198 152.835 91.9771C154.802 91.4458 154.802 91.4459 154.802 89.2873C154.802 88.312 154.814 87.3363 154.792 86.3614C154.759 84.9292 154.56 84.6891 153.195 84.3614C152.879 84.2854 152.553 84.2434 152.323 83.9731C152.048 83.5275 152.092 83.0296 152.09 82.5418C152.076 79.1917 152.109 75.8416 152.074 72.4915C152.068 72.0001 152.071 71.4978 152.293 71.0486C153.067 69.4805 152.937 67.8922 152.437 66.2894C152.317 65.8492 152.31 65.4009 152.338 64.9497C152.396 64.0274 152.876 63.5272 153.806 63.4732C154.133 63.4542 154.462 63.4376 154.788 63.4615C155.536 63.5165 155.799 63.1714 155.788 62.4434C155.762 60.6849 155.779 58.9257 155.78 57.1668C155.781 54.6308 155.775 52.0947 155.784 49.5586C155.786 49.0351 155.709 48.4803 156.17 48.0716Z" fill="#DEF4FD"/>
<path d="M91.8985 199.94C93.0739 199.42 94.3097 199.759 95.5144 199.719C96.2893 199.693 96.6854 199.504 96.5802 198.674C96.5545 198.473 96.5451 198.259 96.5818 198.061C96.8441 196.645 96.2148 196 94.8813 195.477C90.4488 193.736 86.3827 191.292 82.4694 188.589C81.6866 188.049 81.4498 187.482 81.7807 186.518C82.4856 184.465 82.536 182.328 81.9068 180.255C80.8058 176.627 78.2552 175.361 74.5341 175.12C72.6326 174.997 70.6912 174.86 68.7841 175.303C68.2393 175.429 67.8333 175.234 67.4392 174.722C62.059 167.737 57.8677 160.147 55.3778 151.646C55.0354 150.477 54.6248 149.318 54.3278 148.133C53.9544 146.643 54.2564 146.337 55.7727 146.274C60.4517 146.079 64.3364 144.326 66.9712 140.312C68.3529 138.207 68.4447 135.886 67.4558 133.641C65.8845 130.073 62.88 128.096 59.3191 126.866C57.3163 126.174 55.2651 126.027 53.2046 126.602C52.3108 126.851 52.2611 126.36 52.2594 125.698C52.2514 122.705 52.7613 119.779 53.3304 116.856C54.6737 109.958 56.9747 103.384 60.2553 97.1828C62.8366 92.3038 65.8623 87.6967 69.5636 83.5671C70.0262 83.051 70.4514 82.5014 70.9132 81.9846C71.3459 81.5003 71.711 81.4401 71.9633 82.1713C73.2974 86.0378 76.4505 87.5229 80.1095 88.1579C82.8334 88.6306 85.6003 88.8286 88.3728 88.9689C90.6403 89.0837 92.892 89.5145 95.1498 89.8123C97.0843 90.0675 99.0176 90.3321 100.951 90.5943C101.552 90.6758 101.443 90.196 101.53 89.8699C102.016 90.3743 103.578 91.1845 104.501 91.4895C105.125 91.6956 105.766 91.7855 106.405 91.9124C108.787 92.2923 108.789 92.2923 108.79 94.7189C108.792 98.6384 108.794 102.558 108.788 106.477C108.786 107.086 108.846 107.707 108.555 108.28C107.767 109.036 106.774 108.734 105.875 108.713C104.862 108.689 104.537 109.018 104.55 110.04C104.6 113.999 104.571 117.959 104.57 121.919C104.569 123.534 105.117 124.94 106.099 126.215C106.474 126.702 107.093 127.117 106.893 127.893C106.102 128.415 105.201 128.415 104.306 128.431C103.573 128.443 102.84 128.428 102.108 128.435C100.734 128.448 100.641 128.531 100.636 129.882C100.628 132.284 100.63 134.686 100.637 137.087C100.639 137.486 100.555 137.91 100.873 138.247C101.572 138.773 102.384 138.48 103.141 138.559C104.286 138.677 104.492 138.96 103.889 139.938C102.982 141.409 102.849 143.011 102.848 144.666C102.846 159.952 102.864 175.238 102.842 190.525C102.783 191.146 102.949 191.804 102.541 192.369C101.292 192.982 99.9601 192.6 98.668 192.662C97.1971 192.734 97.1927 192.684 97.189 194.185C97.1854 195.62 97.1926 197.055 97.1857 198.491C97.1831 199.021 97.2326 199.566 96.8591 200.02C95.1978 200.485 93.5419 200.597 91.8985 199.94Z" fill="#DEF3FD"/>
<path d="M91.8984 199.94C93.5169 199.941 95.1355 199.943 96.754 199.945C97.2346 201.072 98.1654 201.28 99.2893 201.373C105.503 201.886 111.729 201.943 117.957 202.072C124.557 202.209 131.157 202.348 137.754 202.227C144.349 202.106 150.949 202.106 157.536 201.719C159.497 201.604 161.464 201.544 163.422 201.323C164.643 201.185 165.911 201.288 166.279 199.708C166.347 199.705 166.415 199.7 166.483 199.691L166.491 199.697C168.099 199.971 169.719 199.742 171.331 199.825C171.931 199.856 172.545 199.695 173.132 199.938C177.877 200.111 182.627 200.201 187.366 200.479C192.833 200.799 198.314 200.967 203.752 201.684C204.318 201.758 204.886 201.851 205.438 201.994C205.914 202.117 206.475 202.304 206.503 202.868C206.533 203.453 205.968 203.694 205.5 203.787C203.938 204.096 202.372 204.433 200.791 204.587C193.378 205.311 185.946 205.698 178.498 205.908C173.465 206.05 168.434 206.244 163.399 206.355C146.137 206.735 128.874 206.652 111.612 206.512C107.191 206.477 102.763 206.416 98.3402 206.302C93.3884 206.174 88.4324 206.084 83.4883 205.801C76.3904 205.394 69.2639 205.3 62.2252 204.129C61.702 204.042 61.1781 203.93 60.6734 203.769C60.2672 203.641 59.6866 203.605 59.7042 203.004C59.7215 202.415 60.2196 202.246 60.715 202.098C62.0969 201.685 63.5287 201.569 64.947 201.437C69.0192 201.057 73.1059 200.87 77.187 200.612C82.0891 200.301 86.9996 200.262 91.8984 199.94Z" fill="#94D1FE"/>
<path d="M101.487 86.7169C99.2341 86.3885 96.9841 86.0362 94.7268 85.7381C92.1468 85.3974 89.5674 85.0095 86.9748 84.8202C84.6955 84.6538 82.4116 84.6109 80.187 84.0195C79.5953 83.8621 79.004 83.6973 78.4249 83.4996C75.7263 82.5783 75.2308 80.3811 75.4268 77.9879C75.4637 77.538 75.8352 77.2865 76.1304 77.014C79.6826 73.7344 83.5439 70.875 87.702 68.4018C92.3926 65.6119 97.2703 63.221 102.492 61.6283C103.732 61.2498 104.011 60.7671 103.985 59.5693C103.902 55.8392 103.949 52.1061 103.962 48.3743C103.964 47.9418 103.811 47.4625 104.192 47.09C104.675 47.5425 104.568 48.1412 104.569 48.7006C104.578 52.9859 104.572 57.2714 104.574 61.5567C104.575 63.5369 104.431 63.4643 106.391 63.4683C107.795 63.4712 108.115 63.7645 108.485 65.175C108.504 65.7522 108.342 66.2683 108.114 66.8099C107.591 68.0492 107.531 69.3265 108.259 70.5356C108.471 70.8884 108.718 71.2341 108.711 71.6501C108.682 73.3034 109.013 74.9729 108.507 76.6067C108.081 77.024 107.532 76.9712 107.007 76.9791C105.904 76.9956 104.801 76.9593 103.699 76.9919C101.62 77.0534 100.73 78.1006 100.982 80.1468C101.172 81.687 101.373 83.2235 101.719 84.7405C101.871 85.4039 102.035 86.1146 101.487 86.7169Z" fill="#DEF4FE"/>
<path d="M135.184 32.7813C135.787 33.3298 136.508 32.9624 137.172 33.0275C138.415 33.1494 139.686 32.8441 140.912 33.2651C140.255 33.8819 139.439 33.5849 138.69 33.6321C137.997 33.6757 137.299 33.6498 136.601 33.6577C138.802 33.7791 141.006 33.6203 143.199 34.1135C149.334 35.4931 154.17 40.3751 155.369 46.5579C155.463 47.0429 155.536 47.5268 155.394 48.0171C155.149 48.6325 154.599 48.642 154.07 48.673C152.883 48.7426 151.718 48.5801 150.564 48.3284C149.928 48.1025 150.221 47.6207 150.266 47.2107C150.309 46.8212 150.253 46.4753 149.853 46.3007C149.614 46.1965 149.374 46.2478 149.177 46.4209C148.854 46.7059 148.888 47.0476 149.019 47.4159C149.142 47.7595 149.567 48.0968 149.076 48.4805C148.891 48.5798 148.694 48.6533 148.49 48.6559C145.095 48.6991 141.699 48.8244 138.308 48.5915C137.611 48.3621 137.478 47.7542 137.349 47.1446C136.729 44.212 135.453 41.5921 133.66 39.1952C132.151 37.1775 130.165 35.7871 128 34.5827C127.054 34.0561 125.909 33.8107 125.277 32.7963C125.257 32.6638 125.273 32.5363 125.321 32.412C125.773 30.9833 125.46 29.5397 125.41 28.0996C125.818 27.7447 126.321 27.756 126.809 27.7523C128.98 27.7359 131.151 27.7203 133.322 27.7561C134.822 27.781 135.059 28.0659 135.1 29.5983C135.129 30.6593 135.001 31.7246 135.184 32.7813Z" fill="#A5B4FA"/>
<path d="M179.446 172.884C176.3 173.178 175.56 170.748 175.506 168.132C175.462 166.051 176.602 164.929 178.419 164.245C182.637 162.658 187.074 161.977 191.453 161.059C194.916 160.333 198.392 159.667 201.865 158.989C202.701 158.826 203.545 158.679 204.393 158.607C205.075 158.548 205.574 158.793 205.223 159.62C204.105 162.257 202.863 164.836 201.382 167.29C200.949 168.007 200.298 168.31 199.399 168.496C195.612 169.276 191.867 170.254 188.096 171.116C185.288 171.759 182.579 172.895 179.446 172.884Z" fill="#DEF3FD"/>
<path d="M101.487 86.7169C101.603 84.5396 100.826 82.4861 100.596 80.3515C100.327 77.8723 101.271 76.6542 103.799 76.6295C105.307 76.6148 106.815 76.596 108.324 76.579C108.55 76.4551 108.776 76.328 109.044 76.3184C109.173 76.3039 109.303 76.3004 109.433 76.3019C109.96 76.3106 110.486 76.3273 110.924 76.685C111.074 76.816 111.192 76.9715 111.275 77.1535C111.586 78.1181 111.275 78.8146 110.4 79.3203C109.367 79.9177 108.838 80.8537 108.724 82.033C108.503 83.5705 108.554 83.6221 110.09 83.6549C111.306 83.6808 112.529 83.5527 113.741 83.7837C116.879 83.8737 120.009 83.9037 123.147 83.7213C126.973 83.4989 130.808 83.5331 134.639 83.7139C135.516 84.0058 136.428 83.9558 137.32 83.89C141.934 83.5489 146.554 83.6494 151.173 83.6524C151.322 83.6565 151.471 83.6653 151.62 83.6755C151.924 83.6914 152.205 83.771 152.436 83.9829C152.805 83.9959 153.174 84.0027 153.542 84.0232C154.559 84.0798 155.138 84.5671 155.138 85.6392C155.138 87.5244 155.136 89.4097 155.16 91.2947C155.168 91.9017 154.97 92.2245 154.316 92.1848C153.867 92.1575 153.415 92.1751 152.964 92.1727C152.288 92.4192 151.586 92.5063 150.872 92.5239C137.779 92.5324 124.687 92.4426 111.595 92.4833C110.901 92.4854 110.203 92.4314 109.516 92.5749C108.411 92.3484 107.296 92.2041 106.167 92.1784C104.793 92.2824 103.556 91.3896 102.153 91.6377C101.809 91.6986 101.701 91.3771 101.68 91.063C101.652 90.6631 101.754 90.2457 101.53 89.8702C101.516 88.8189 101.501 87.7679 101.487 86.7169Z" fill="#5D76D8"/>
<path d="M135.185 32.7813C134.578 32.6857 134.71 32.2083 134.706 31.8217C134.696 30.8803 134.709 29.9387 134.71 28.9971C134.711 28.5762 134.73 28.1392 134.119 28.1425C131.256 28.1577 128.393 28.1726 125.53 28.1964C125.473 28.1969 125.418 28.3046 125.362 28.3623C125.816 29.7523 125.717 31.1486 125.411 32.5474C125.38 32.6206 125.361 32.6967 125.354 32.7758C125.265 33.0724 125.081 33.1883 124.777 33.0823C124.606 32.9682 124.503 32.8136 124.494 32.6037C124.493 31.7683 124.619 30.9291 124.421 30.0994C124.416 29.7722 124.378 29.4417 124.412 29.1185C124.485 28.4106 124.267 28.0111 123.48 28.1085C122.557 28.2227 122.287 27.8039 122.319 26.9013C122.385 25.0216 122.324 23.1378 122.351 21.2562C122.367 20.0677 122.889 19.5109 124.066 19.492C127.869 19.431 131.674 19.3775 135.477 19.3862C137.141 19.39 137.666 20.0001 137.666 21.6391C137.665 23.4392 137.625 25.2399 137.662 27.0391C137.677 27.8191 137.441 28.2263 136.622 28.096C135.657 27.9422 135.481 28.4085 135.467 29.2751C135.448 30.4434 135.706 31.6495 135.185 32.7813Z" fill="#636CE3"/>
<path d="M55.8856 130.288C59.1877 130.631 61.8374 132.182 63.7218 134.866C64.7261 136.296 63.9329 138.516 62.187 139.914C59.7643 141.853 56.9312 142.383 53.9191 142.353C53.0353 142.344 52.9019 141.692 52.8257 141.13C52.5855 139.358 52.4344 137.573 52.2707 135.791C52.1853 134.86 52.3184 133.93 52.0919 132.987C51.8337 131.913 53.3689 130.442 54.7801 130.294C55.1448 130.255 55.5169 130.288 55.8856 130.288Z" fill="white"/>
<path d="M180.563 19.8549C183.865 20.1979 186.515 21.7487 188.399 24.4325C189.403 25.8629 188.61 28.0829 186.864 29.4805C184.442 31.42 181.608 31.9501 178.596 31.9202C177.713 31.9115 177.579 31.259 177.503 30.697C177.263 28.9248 177.112 27.14 176.948 25.3581C176.863 24.4274 176.996 23.4973 176.769 22.5544C176.511 21.48 178.046 20.0087 179.457 19.8607C179.822 19.8223 180.194 19.8549 180.563 19.8549Z" fill="white"/>
<path d="M189.697 170.564C192.999 170.907 195.648 172.457 197.533 175.141C198.537 176.572 197.744 178.792 195.998 180.189C193.575 182.129 190.742 182.659 187.73 182.629C186.846 182.62 186.713 181.968 186.637 181.406C186.397 179.633 186.245 177.849 186.082 176.067C185.996 175.136 186.129 174.206 185.903 173.263C185.645 172.189 187.18 170.717 188.591 170.569C188.956 170.531 189.328 170.564 189.697 170.564Z" fill="white"/>
<path d="M124.667 32.8095C124.742 32.8776 124.816 32.9458 124.89 33.0139C124.647 33.9024 123.898 33.9025 123.215 33.8949C121.621 33.8772 120.04 34 118.467 34.2293C111.897 35.2945 106.29 40.2892 105.372 47.6741C105.204 52.3233 105.336 56.9712 105.292 61.618C105.284 62.4748 105.717 62.7619 106.515 62.7443C107.575 62.721 108.636 62.7384 109.697 62.7347C119.01 62.741 128.322 62.737 137.634 62.7341C142.883 62.7446 148.133 62.7378 153.383 62.7363C154.937 62.7358 155.057 62.6134 155.058 61.0505C155.063 57.3184 155.089 53.5859 155.035 49.8546C155.024 49.1593 155.348 48.5066 155.176 47.8149C154.736 43.5636 152.79 40.1277 149.468 37.484C146.407 35.0472 142.869 34.0025 138.97 34.0086C137.764 34.0105 136.48 34.3199 135.071 33.4619C137.198 33.1085 139.066 33.4226 140.912 33.2651C147.438 33.689 155.143 38.8418 156.127 47.8299C156.136 47.911 156.156 47.9909 156.171 48.0714C156.169 52.8674 156.127 57.6639 156.194 62.4589C156.21 63.6193 155.842 64.0158 154.75 63.8478C154.67 63.8356 154.586 63.8487 154.504 63.8505C152.662 63.8912 152.754 63.6573 152.681 65.5486C152.671 65.7931 152.621 66.036 152.589 66.2796C152.216 66.5657 151.868 66.5692 151.555 66.186C150.999 64.2202 150.999 64.2191 148.863 64.219C136.338 64.2187 123.812 64.2109 111.287 64.2421C110.664 64.2437 109.734 63.7975 109.486 64.9281C109.45 65.3649 109.507 65.8176 109.267 66.2195C108.13 66.8807 108.311 65.9826 108.257 65.3631C108.156 64.1147 107.434 63.8121 106.266 63.8502C104.151 63.9193 104.157 63.8581 104.164 61.7063C104.178 56.8341 104.183 51.9619 104.192 47.0897C105.607 38.5615 112.504 33.1812 120.194 32.7633C121.686 32.6736 123.178 32.5895 124.667 32.8095Z" fill="#6273D2"/>
<path d="M183.782 79.8246C182.599 79.8246 181.74 79.8448 180.882 79.8204C179.223 79.7731 178.656 78.8023 179.189 77.2416C179.722 75.6818 181.041 74.9184 182.181 73.9611C182.617 73.5942 183.077 73.8815 183.409 74.1525C185.173 75.5903 186.91 77.0616 188.651 78.5275C188.856 78.6999 188.92 78.9468 188.8 79.1935C188.661 79.4824 188.387 79.5419 188.086 79.5785C186.548 79.7656 185.01 79.9212 183.782 79.8246Z" fill="#DFF3FD"/>
<path d="M183.717 90.3317C183.72 87.9838 184.929 87.0585 187.645 86.9204C189.131 86.8449 190.078 87.8844 190.113 90.3977C190.139 92.3021 188.941 93.4513 186.879 93.342C184.291 93.2048 183.535 92.4291 183.717 90.3317Z" fill="white"/>
<path d="M124.667 32.8096C123.176 32.7943 121.685 32.779 120.193 32.7636C121.175 32.3633 122.209 32.5496 123.209 32.5727C124.187 32.5954 124.541 32.2805 124.398 31.3183C124.339 30.9218 124.409 30.5061 124.42 30.0993C124.827 30.9734 124.531 31.9111 124.667 32.8096Z" fill="#A5B4FA"/>
<path d="M173.132 199.938C171.219 199.935 169.307 199.935 167.395 199.927C167.079 199.925 166.734 200.003 166.491 199.697C168.322 199.697 170.154 199.69 171.985 199.702C172.376 199.704 172.81 199.571 173.132 199.938Z" fill="#DEF4FD"/>
<path d="M166.279 199.708C166.172 201.52 166.172 201.53 164.326 201.657C149.932 202.648 135.521 202.749 121.103 202.485C115.698 202.386 110.293 202.288 104.889 202.128C102.723 202.063 100.564 201.763 98.3982 201.699C97.1391 201.662 96.5864 201.202 96.7542 199.944C96.7745 197.702 96.8184 195.46 96.801 193.218C96.7958 192.545 96.9575 192.295 97.6821 192.312C99.2713 192.351 100.863 192.287 102.453 192.266C102.917 191.916 103.461 191.963 103.99 191.963C122.268 191.959 140.546 191.959 158.824 191.964C159.352 191.964 159.898 191.904 160.364 192.252C161.875 192.263 163.39 192.337 164.897 192.261C165.932 192.209 166.324 192.441 166.268 193.583C166.169 195.619 166.265 197.666 166.279 199.708Z" fill="#263967"/>
<path d="M100.342 138.665C100.303 135.32 100.274 131.975 100.216 128.63C100.203 127.882 100.703 128.041 101.126 128.02C103.04 127.929 104.968 128.154 106.868 127.762C107.391 127.075 108.117 127.274 108.809 127.312C110.556 127.583 112.31 127.679 114.08 127.677C125.32 127.658 136.56 127.666 147.8 127.67C148.745 127.671 149.686 127.643 150.62 127.486C151.478 127.542 152.387 127.238 153.173 127.831C154.777 128.298 156.416 127.991 158.037 128.025C160.823 128.082 160.822 128.043 160.817 130.826C160.813 133.078 160.823 135.329 160.805 137.581C160.801 137.986 161.016 138.531 160.345 138.675C159.898 139.067 159.349 138.991 158.822 138.998C156.612 139.024 154.4 138.96 152.19 139.037C140.472 139.012 128.755 138.987 117.038 139.005C113.779 138.995 110.52 138.998 107.26 139.003C104.948 139.007 102.65 138.738 100.342 138.665Z" fill="#263967"/>
<path d="M108.592 127.626C108.009 127.573 107.428 127.532 106.868 127.762C104.748 125.672 104.026 123.138 104.142 120.188C104.283 116.638 104.209 113.077 104.14 109.523C104.12 108.507 104.464 108.255 105.395 108.321C106.371 108.391 107.356 108.333 108.337 108.331C108.683 108.082 109.079 108.02 109.492 108.02C112.853 107.912 116.214 107.95 119.574 107.983C125.682 108.044 131.788 107.913 137.895 107.971C138.223 107.974 138.551 107.955 138.878 107.987C143.034 108.103 147.191 107.857 151.347 108.029C151.758 108.018 152.151 108.076 152.485 108.342C153.425 108.349 154.366 108.38 155.305 108.353C155.909 108.335 156.187 108.505 156.183 109.173C156.154 113.178 156.239 117.185 156.122 121.186C156.06 123.287 155.106 125.114 153.599 126.618C153.268 126.949 152.787 127.242 153.173 127.831C152.358 127.818 151.544 127.805 150.729 127.792C150.712 127.403 150.988 127.194 151.257 127.02C153.968 125.258 154.941 122.618 155.003 119.546C155.06 116.675 155.034 113.803 155.011 110.932C155.001 109.695 154.827 109.581 153.557 109.502C151.623 109.382 149.718 109.823 147.785 109.752C134.337 109.257 120.883 109.529 107.432 109.462C107.063 109.46 106.694 109.462 106.324 109.467C105.693 109.477 105.296 109.757 105.302 110.423C105.337 114.399 105.18 118.377 105.386 122.349C105.477 122.739 105.533 123.136 105.633 123.524C105.799 125.053 106.972 125.846 107.987 126.761C108.247 126.996 108.822 127.039 108.592 127.626Z" fill="#6173D5"/>
<path d="M151.73 66.2775C152.017 66.2783 152.303 66.2791 152.589 66.2798C152.958 66.4834 153.31 66.7065 153.226 67.211C153.003 68.5491 153.842 70.0732 152.508 71.2315C152.378 71.3445 152.446 71.7014 152.445 71.9452C152.44 75.9579 152.439 79.9706 152.436 83.9831C152.201 83.9842 151.966 83.9856 151.731 83.9869C151.258 83.4793 151.347 82.8405 151.357 82.2386C151.404 79.4986 151.326 76.759 151.35 74.0193C151.352 73.815 151.372 73.6107 151.359 73.4063C151.232 71.3347 151.068 71.1362 149.051 70.6678C148.408 70.5185 147.804 70.2764 147.223 69.9691C146.343 69.504 145.478 69.528 144.685 70.1335C143.47 71.0625 142.186 71.2461 140.765 70.6638C140.158 70.415 139.49 70.3875 138.841 70.2986C138.091 70.1957 137.643 69.7742 137.62 69.0054C137.594 68.1517 137.481 67.2897 137.736 66.4447C137.807 66.2987 137.913 66.1881 138.053 66.1079C138.59 65.8529 139.166 65.8895 139.733 65.8885C143.11 65.8821 146.486 65.8807 149.863 65.8896C150.507 65.8912 151.177 65.8151 151.73 66.2775Z" fill="#3AA6F9"/>
<path d="M195.135 141.861C196.321 141.661 197.641 142.106 198.994 142.13C200.152 142.151 201.196 142.089 201.932 141.034C202.11 140.778 202.416 140.475 202.754 140.746C203.054 140.986 202.898 141.327 202.741 141.638C201.081 144.926 197.186 147.003 193.561 146.524C191.417 146.24 189.405 143.838 189.131 141.265C188.894 139.044 189.45 137.038 190.757 135.247C191.023 134.883 191.355 134.227 191.889 134.591C192.372 134.92 191.857 135.407 191.638 135.757C191.047 136.704 190.539 137.638 190.577 138.829C190.638 140.77 191.633 141.823 193.605 141.86C194.056 141.869 194.507 141.861 195.135 141.861Z" fill="#91D1FD"/>
<path d="M73.4105 80.0408C74.3593 80.7801 74.9227 82.0536 75.8187 83.0677C76.5855 83.9356 77.3363 84.664 78.6118 84.4936C78.921 84.4523 79.3508 84.4736 79.3795 84.9055C79.4051 85.2895 79.048 85.4042 78.7127 85.4986C75.1667 86.4957 71.0045 85.0268 68.909 82.0293C67.6703 80.2574 68.0826 77.1513 69.7945 75.2106C71.272 73.5356 73.1265 72.5908 75.3305 72.345C75.7787 72.295 76.4872 72.0969 76.5791 72.7364C76.6623 73.3151 75.956 73.2636 75.5502 73.3388C74.4521 73.5424 73.4208 73.7992 72.5679 74.6316C71.1781 75.9879 71.0731 77.4322 72.3778 78.9115C72.6762 79.2499 72.9864 79.5778 73.4105 80.0408Z" fill="#91D1FD"/>
<path d="M152.216 138.69C154.926 138.685 157.636 138.68 160.345 138.675C160.337 156.043 160.33 173.411 160.324 190.78C160.324 191.27 160.35 191.761 160.364 192.252C153.192 192.266 146.02 192.292 138.848 192.292C126.717 192.292 114.585 192.275 102.453 192.266C102.48 191.713 102.506 191.16 102.532 190.607C102.928 190.59 102.971 190.917 103.009 191.168C103.078 191.634 103.346 191.752 103.758 191.706C104.389 191.697 105.016 191.699 105.646 191.699C114.871 191.61 124.094 191.681 133.316 191.662C134.505 191.66 135.694 191.614 136.881 191.697C139.254 191.656 141.628 191.641 144.002 191.702C144.555 191.67 145.109 191.674 145.663 191.701C149.555 191.611 153.447 191.687 157.34 191.66C159.127 191.648 159.187 191.599 159.188 189.78C159.193 175.685 159.19 161.59 159.192 147.495C159.192 146.963 159.16 146.43 159.228 145.9C159.178 144.152 159.211 142.403 159.207 140.655C159.204 139.676 158.779 139.261 157.8 139.278C156.377 139.302 154.952 139.316 153.529 139.264C153.043 139.246 152.432 139.383 152.216 138.69Z" fill="#6872D4"/>
<path d="M198.488 118.755C198.508 120.594 197.654 121.641 196.114 121.668C194.605 121.695 193.389 120.535 193.334 119.017C193.289 117.742 194.611 116.269 195.801 116.269C197.476 116.27 198.472 117.19 198.488 118.755Z" fill="#FDFEFE"/>
<path d="M172.988 143.328C171.347 143.319 170.407 142.36 170.425 140.71C170.44 139.356 171.706 138.132 173.056 138.166C174.412 138.2 175.569 139.413 175.592 140.823C175.615 142.226 174.46 143.337 172.988 143.328Z" fill="#FDFDFE"/>
<path d="M77.9176 60.6272C76.276 60.6182 75.3366 59.6586 75.3547 58.0091C75.3696 56.6548 76.635 55.4308 77.9854 55.4647C79.3411 55.4987 80.4987 56.7114 80.5214 58.1216C80.544 59.5245 79.3896 60.6354 77.9176 60.6272Z" fill="#FDFDFE"/>
<path d="M152.485 108.342C152.143 108.34 151.8 108.339 151.458 108.337C151.299 108.174 151.203 107.979 151.166 107.754C151.068 106.881 151.105 106.005 151.112 105.129C151.099 104.169 151.07 103.208 151.112 102.248C151.088 101.439 151.079 100.631 151.115 99.8232C151.056 97.2674 151.278 94.7063 150.98 92.1542C151.641 92.1602 152.303 92.1662 152.964 92.1724C152.532 92.3672 152.436 92.7091 152.438 93.163C152.464 98.2226 152.472 103.282 152.485 108.342Z" fill="#58ADF2"/>
<path d="M171.925 93.3824C171.062 93.3288 170.482 92.912 170.451 92.0503C170.421 91.1837 170.966 90.6935 171.826 90.6578C172.747 90.6195 173.344 91.1018 173.348 92.0251C173.352 92.8923 172.757 93.3063 171.925 93.3824Z" fill="#A6DEFB"/>
<path d="M76.4043 153.245C76.5501 151.903 75.7153 150.828 75.1803 149.655C75.0474 149.364 74.7348 149.076 75.1392 148.823C75.4317 148.64 75.6971 148.892 75.8684 149.118C78.3029 152.33 79.2541 156.738 75.8421 160.075C74.5253 161.364 70.7834 161.685 68.7825 160.533C66.8921 159.444 65.362 157.908 64.1431 156.083C63.9646 155.815 63.663 155.524 64.0277 155.239C64.3007 155.026 64.5805 155.258 64.7679 155.479C65.8718 156.779 67.2217 157.095 68.85 156.647C70.3229 156.243 71.853 156.41 73.3615 156.364C75.2916 156.306 76.4022 155.165 76.4043 153.245Z" fill="#92D2FE"/>
<path d="M35.8401 113.839C35.9858 112.497 35.1511 111.422 34.6161 110.249C34.4832 109.958 34.1706 109.67 34.575 109.417C34.8675 109.234 35.1329 109.486 35.3042 109.712C37.7387 112.924 38.6899 117.332 35.2779 120.669C33.9611 121.958 30.2192 122.279 28.2183 121.126C26.3279 120.038 24.7978 118.502 23.5789 116.677C23.4004 116.409 23.0988 116.118 23.4635 115.833C23.7365 115.62 24.0163 115.852 24.2037 116.073C25.3076 117.373 26.6575 117.689 28.2858 117.241C29.7587 116.837 31.2888 117.004 32.7973 116.958C34.7274 116.9 35.838 115.759 35.8401 113.839Z" fill="#92D2FE"/>
<path d="M103.476 192.054C102.254 192.163 103.032 190.968 102.532 190.607C102.51 187.165 102.471 183.722 102.468 180.28C102.459 168.31 102.474 156.34 102.452 144.37C102.449 142.434 102.734 140.62 104.12 139.013C102.805 138.633 101.519 139.141 100.342 138.665C105.898 138.677 111.454 138.688 117.01 138.7C117.05 138.868 116.993 138.992 116.84 139.072C116.305 139.33 115.728 139.274 115.164 139.276C112.362 139.285 109.56 139.274 106.759 139.284C106.274 139.286 105.783 139.264 105.32 139.449C104.172 140.453 103.74 141.749 103.773 143.238C103.758 143.457 103.723 143.672 103.673 143.887C103.422 145.439 103.592 147 103.589 148.552C103.559 161.8 103.58 175.047 103.557 188.295C103.555 189.546 103.951 190.812 103.476 192.054Z" fill="#6277D9"/>
<path d="M96.5757 96.2531C96.571 97.6095 95.4286 98.6752 94.2155 98.2181C91.7387 97.2849 89.2275 96.4951 86.6996 95.725C85.8501 95.4662 85.1075 94.6453 85.3285 93.5231C85.509 92.6068 86.9278 91.7286 87.9489 91.9398C90.5875 92.4853 93.1537 93.2652 95.533 94.5692C96.2246 94.9482 96.7096 95.4571 96.5757 96.2531Z" fill="#FDFEFE"/>
<path d="M88.7994 182.712C87.1616 182.746 85.7795 181.586 85.7506 180.153C85.7187 178.573 86.9913 177.315 88.6402 177.295C90.3106 177.276 91.6392 178.404 91.6518 179.853C91.6661 181.503 90.4948 182.677 88.7994 182.712Z" fill="#FDFDFE"/>
<path d="M66.0513 119.614C66.0449 121.195 64.7895 122.449 63.2738 122.389C61.6244 122.323 60.3661 121.013 60.3887 119.384C60.409 117.923 61.639 116.752 63.1979 116.758C64.3637 116.763 66.3103 117.911 66.0513 119.614Z" fill="#FDFDFE"/>
<path d="M176.01 110.383C176.003 111.964 174.748 113.218 173.232 113.158C171.583 113.092 170.324 111.782 170.347 110.153C170.367 108.692 171.597 107.52 173.156 107.527C174.322 107.532 176.269 108.679 176.01 110.383Z" fill="#FDFDFE"/>
<path d="M201.584 64.7137C201.578 66.2946 200.322 67.5488 198.807 67.4885C197.157 67.423 195.899 66.1126 195.922 64.484C195.942 63.0224 197.172 61.8512 198.731 61.8578C199.897 61.8627 201.843 63.0102 201.584 64.7137Z" fill="#FDFDFE"/>
<path d="M93.6212 172.471C93.6327 170.974 94.7268 169.93 96.3014 169.914C97.6757 169.901 98.9737 171.161 99.0211 172.555C99.0624 173.772 97.5773 175.091 96.1836 175.074C94.8229 175.058 93.6107 173.827 93.6212 172.471Z" fill="#FDFEFE"/>
<path d="M109.419 108.33C109.058 108.331 108.698 108.331 108.337 108.331C108.36 103.258 108.377 98.1842 108.414 93.1108C108.419 92.5149 108.171 92.3262 107.609 92.3273C107.128 92.3284 106.624 92.4442 106.167 92.1781C107.238 92.0362 108.293 92.1676 109.344 92.3651C109.401 92.4191 109.458 92.4731 109.516 92.5265C109.902 93.2982 109.75 94.129 109.758 94.9362C109.776 96.7727 109.78 98.6097 109.743 100.446C109.777 101.296 109.769 102.147 109.745 102.997C109.692 104.268 109.813 105.538 109.762 106.809C109.741 107.336 109.811 107.886 109.419 108.33Z" fill="#5FB4ED"/>
<path d="M73.8848 125.592C72.5009 125.77 71.4468 124.983 70.4227 124.164C70.1349 123.933 69.6219 123.678 69.911 123.196C70.2458 122.638 70.7663 122.95 71.0688 123.226C71.9236 124.007 72.922 124.126 74.0125 124.146C75.1763 124.168 76.1778 123.852 77.0416 123.09C77.3884 122.785 77.7997 122.393 78.1915 122.811C78.5756 123.22 78.1557 123.685 77.8555 123.97C76.7655 125.004 75.5312 125.755 73.8848 125.592Z" fill="#9ED5F8"/>
<path d="M170.752 68.4741C169.369 68.652 168.314 67.8658 167.29 67.0462C167.003 66.8159 166.49 66.5608 166.779 66.0788C167.114 65.5207 167.634 65.832 167.937 66.1084C168.791 66.8894 169.79 67.0086 170.88 67.0287C172.044 67.0501 173.045 66.7348 173.909 65.9729C174.256 65.667 174.667 65.2754 175.059 65.693C175.443 66.1026 175.023 66.5678 174.723 66.8526C173.633 67.8869 172.399 68.6378 170.752 68.4741Z" fill="#9ED5F8"/>
<path d="M199.981 41.0725C198.597 41.2504 197.543 40.4642 196.519 39.6446C196.231 39.4143 195.718 39.1592 196.007 38.6773C196.342 38.1191 196.862 38.4304 197.165 38.7068C198.02 39.4878 199.018 39.6071 200.108 39.6271C201.272 39.6485 202.274 39.3332 203.138 38.5714C203.484 38.2655 203.896 37.8738 204.287 38.2914C204.672 38.701 204.252 39.1662 203.951 39.4511C202.861 40.4853 201.627 41.2362 199.981 41.0725Z" fill="#9ED5F8"/>
<path d="M216.422 90.3953C215.038 90.5733 213.984 89.787 212.96 88.9675C212.672 88.7372 212.159 88.4821 212.448 88.0001C212.783 87.4419 213.303 87.7533 213.606 88.0297C214.461 88.8107 215.459 88.9299 216.549 88.9499C217.713 88.9713 218.715 88.6561 219.578 87.8942C219.925 87.5883 220.337 87.1966 220.728 87.6143C221.113 88.0238 220.693 88.489 220.392 88.7739C219.302 89.8081 218.068 90.5591 216.422 90.3953Z" fill="#9ED5F8"/>
<path d="M88.2099 157.977C88.263 159.16 87.624 159.565 86.6948 159.556C85.7046 159.546 85.2451 158.954 85.2424 157.975C85.24 157.064 85.6472 156.453 86.574 156.415C87.6387 156.371 88.2177 157.027 88.2099 157.977Z" fill="#A6DDFB"/>
<path d="M80.0824 104.319C80.1855 105.237 79.6289 105.629 78.8605 105.623C78.131 105.618 77.663 105.1 77.641 104.365C77.617 103.565 78.0936 103.016 78.8812 103.01C79.6505 103.004 80.1975 103.419 80.0824 104.319Z" fill="#A8DEFA"/>
<path d="M44.9149 90.5689C45.018 91.4865 44.4614 91.8788 43.6931 91.8728C42.9636 91.8672 42.4955 91.35 42.4735 90.6142C42.4495 89.8146 42.9262 89.2651 43.7137 89.2594C44.483 89.2538 45.03 89.6684 44.9149 90.5689Z" fill="#A8DEFA"/>
<path d="M81.5531 126.759C81.5545 127.627 81.0637 127.796 80.4907 127.813C79.8138 127.833 79.3639 127.491 79.3798 126.795C79.3942 126.167 79.8228 125.86 80.4463 125.855C81.1487 125.85 81.4706 126.253 81.5531 126.759Z" fill="#AADDF8"/>
<path d="M108.257 65.3633C108.461 65.756 108.36 66.4318 109.128 66.3021C109.498 66.6451 109.511 67.1069 109.516 67.5557C109.543 70.22 109.449 72.8838 109.467 75.5482C109.47 75.9191 109.44 76.2903 109.152 76.5765C108.876 76.5775 108.6 76.5784 108.324 76.5792C108.331 75.0665 108.338 73.5539 108.344 72.0414C108.346 71.4696 108.348 70.9594 107.761 70.5457C107.246 70.1833 107.177 66.9209 107.691 66.6094C108.254 66.2681 108.135 65.8022 108.257 65.3633Z" fill="#52B2EF"/>
<path d="M118.204 34.014C119.889 33.4821 121.635 33.5633 123.363 33.5546C123.974 33.5515 124.456 33.4065 124.89 33.014C125.045 32.9346 125.2 32.8554 125.354 32.7759C126.679 33.493 128.046 34.1441 129.322 34.9392C133.993 37.8489 136.651 42.1312 137.711 47.4714C137.766 47.7509 137.847 48.0254 137.916 48.3022C137.858 48.3584 137.801 48.4145 137.744 48.4716C137.254 48.7455 136.713 48.7133 136.183 48.7138C129.297 48.721 122.411 48.72 115.525 48.7152C115.075 48.7149 114.622 48.7219 114.186 48.5927C113.849 48.446 113.527 48.207 114.012 47.9336C114.743 47.5215 114.837 46.8359 114.891 46.1573C115.15 42.9025 116.366 40.0994 118.604 37.7003C119.683 36.543 119.59 35.9269 118.488 34.6667C118.322 34.4776 118.191 34.2785 118.204 34.014Z" fill="#DEE5FE"/>
<path d="M155.176 47.815C155.457 48.0706 155.404 48.4125 155.404 48.7348C155.41 53.1614 155.398 57.5881 155.427 62.0146C155.432 62.7867 155.231 63.1043 154.396 63.0982C148.822 63.0574 143.248 63.06 137.673 63.0486C137.623 62.8831 137.674 62.7591 137.825 62.6753C138.029 62.5597 138.255 62.5239 138.481 62.4883C143.276 62.402 148.071 62.4716 152.866 62.4484C154.757 62.4393 154.768 62.4327 154.769 60.5207C154.772 57.488 154.781 54.4552 154.765 51.4226C154.758 50.0741 154.672 50.0787 153.367 50.1066C148.33 50.214 143.292 50.305 138.255 50.0663C138.104 50.017 137.972 49.9374 137.855 49.8308C137.542 49.3087 137.556 48.799 137.916 48.3035C137.916 48.3035 137.916 48.3025 137.916 48.3023C141.351 48.3064 144.787 48.3129 148.222 48.3114C148.58 48.3113 148.968 48.4045 149.261 48.0861C149.581 47.7931 149.906 47.7849 150.236 48.0694C151.578 47.9995 152.885 48.4641 154.233 48.3216C154.628 48.2798 155.084 48.3996 155.176 47.815Z" fill="#8A9AF2"/>
<path d="M150.236 48.0694C149.911 48.0749 149.586 48.0804 149.261 48.086C148.931 47.9032 148.629 47.6747 148.547 47.2919C148.449 46.8334 148.504 46.391 148.924 46.0812C149.326 45.7839 149.791 45.7389 150.179 46.0129C150.548 46.2732 150.791 46.6948 150.65 47.1842C150.56 47.4932 150.377 47.7752 150.236 48.0694Z" fill="#D3DBFA"/>
<path d="M125.411 32.5474C125.395 31.1524 125.379 29.7575 125.362 28.3625C125.568 28.3933 125.824 28.4515 125.826 28.6736C125.838 29.885 125.821 31.0971 125.784 32.308C125.782 32.3914 125.541 32.4677 125.411 32.5474Z" fill="#E1E6F9"/>
<path d="M110.837 76.9056C110.4 76.5938 109.876 76.6743 109.39 76.5842C109.096 74.7603 109.315 72.9241 109.268 71.0942C109.251 70.4568 109.786 70.4299 110.234 70.4178C111.241 70.3905 112.178 70.7235 113.068 71.1396C115.326 72.196 117.48 72.0239 119.653 70.8465C121.514 69.8385 123.423 69.8818 125.273 70.968C125.768 71.2583 126.25 71.5669 126.718 71.8995C129.477 73.8595 132.491 73.7941 135.256 71.8229C135.993 71.2969 136.58 70.2525 137.78 70.7326C138.27 71.7884 137.978 72.9092 138.041 73.9998C138.086 74.7675 138.009 75.4702 138.807 76.0495C139.681 76.6843 138.769 77.3044 138.351 78.0066C139.308 78.0654 140.093 77.9003 140.882 77.7308C143.967 77.0672 147.055 77.0318 150.138 77.7471C150.843 77.9107 151.58 77.9806 151.608 79.0422C151.663 81.1166 151.62 81.3564 150.296 81.7522C149.247 82.0658 148.213 82.5408 147.064 82.3008C145.14 81.8529 143.16 81.9107 141.214 81.6694C141.052 81.6494 140.885 81.6737 140.722 81.6573C140.009 81.5852 139.006 81.7108 139.068 80.6793C139.127 79.7109 140.125 80.0089 140.765 79.9652C142.815 79.8254 144.843 80.3345 146.896 80.2034C147.63 80.1566 148.37 80.1879 149.116 79.7664C148.821 79.2793 148.345 79.2869 147.944 79.2653C145.075 79.1113 142.212 79.1482 139.378 79.6933C138.963 79.7733 138.254 79.7079 138.766 80.5255C138.875 80.6994 138.822 80.9548 138.675 81.1022C138.103 81.6773 138.047 82.4043 138.012 83.1489C137.981 83.8292 137.683 84.2111 136.929 84.1346C136.199 84.0606 135.458 84.2247 134.73 84.0451C128.143 84.0973 121.556 84.1526 114.968 84.1954C114.488 84.1985 113.983 84.3207 113.529 84.0384C113.86 81.4692 113.661 78.8894 113.681 76.3141C113.683 76.0272 113.632 75.7414 113.534 75.4702C113.373 75.0242 113.136 74.6422 112.592 74.6465C112.078 74.6505 111.775 74.9639 111.581 75.4105C111.359 75.9215 111.408 76.5682 110.837 76.9056Z" fill="#B0E8FD"/>
<path d="M153.919 85.2536C154.377 87.0744 154.461 88.9267 154.368 90.7911C154.348 91.1859 154.059 91.3446 153.692 91.3608C153.405 91.3734 153.118 91.372 152.831 91.372C138.108 91.3744 123.386 91.3716 108.663 91.3911C107.853 91.3922 107.422 91.392 107.614 90.3156C107.857 88.9575 107.854 87.5498 107.885 86.1619C107.9 85.4942 108.089 85.2396 108.796 85.2113C111.338 85.1096 111.337 85.0829 111.337 87.5866C111.337 87.9967 111.307 88.4101 111.349 88.8158C111.388 89.1832 111.131 89.8067 111.694 89.8326C112.31 89.861 112.066 89.2224 112.08 88.8681C112.117 87.8853 112.09 86.9002 112.102 85.9162C112.106 85.6025 112 85.2474 112.342 85.0196C112.947 85.8219 112.679 86.7549 112.709 87.6338C112.761 89.1819 112.802 89.274 114.277 89.2766C120.129 89.2867 125.982 89.2919 131.834 89.2747C133.924 89.2686 134.649 88.6033 134.772 86.5428C134.819 85.7638 135.17 85.4332 135.889 85.3821C136.256 85.356 136.625 85.3658 136.994 85.3657C142.191 85.3646 147.388 85.3689 152.586 85.3603C153.03 85.3595 153.487 85.4449 153.919 85.2536Z" fill="#A3B2F9"/>
<path d="M137.681 70.7228C136.792 70.7997 136.249 71.4868 135.614 71.9645C132.531 74.2838 129.333 74.319 126.295 72.0148C124.136 70.377 121.895 69.9095 119.389 71.3474C117.442 72.4651 115.386 72.5653 113.289 71.5931C112.447 71.2029 111.527 70.956 110.619 70.7451C109.826 70.5609 109.31 70.7689 109.363 71.7984C109.444 73.3901 109.388 74.9888 109.39 76.5843C109.39 76.5841 109.27 76.5942 109.27 76.5942C109.27 76.5942 109.151 76.5773 109.151 76.5769C109.144 73.1515 109.136 69.7266 109.128 66.3018C109.141 65.8887 109.154 65.4753 109.167 65.062C109.334 65.0062 109.471 65.048 109.581 65.1853C110.039 65.9648 110.808 65.8886 111.542 65.8891C118.019 65.8935 124.496 65.8798 130.973 65.8977C133.102 65.9036 135.234 65.7945 137.363 65.973C137.607 66.0229 137.824 66.1171 137.962 66.3393C137.957 66.4047 137.945 66.4686 137.925 66.531C137.46 67.6067 137.702 68.7209 137.769 69.8202C137.787 70.1364 137.93 70.441 137.681 70.7228Z" fill="#87CFFE"/>
<path d="M153.919 85.2536C153.749 86.0055 153.134 85.7132 152.709 85.7151C147.296 85.7401 141.882 85.7504 136.469 85.7296C135.571 85.7262 134.979 85.6788 135.171 86.9596C135.393 88.4361 134.164 89.6484 132.644 89.6533C126.205 89.6741 119.766 89.6565 113.328 89.6797C112.598 89.6824 112.29 89.4824 112.323 88.7092C112.375 87.4813 112.34 86.2495 112.342 85.0195C119.63 85.0017 126.917 84.9774 134.205 84.9679C140.225 84.96 146.244 84.9658 152.263 84.9779C152.823 84.9791 153.421 84.8444 153.919 85.2536Z" fill="#E0E7FC"/>
<path d="M137.681 70.7228C137.285 69.539 137.477 68.3162 137.441 67.1085C137.431 66.7733 137.586 66.5742 137.925 66.5311C137.926 66.572 137.925 66.6129 137.927 66.6538C137.958 67.6309 137.712 68.7396 138.095 69.5501C138.524 70.4554 139.84 69.7722 140.668 70.2248C142.201 71.0626 143.54 70.6823 144.815 69.6104C145.552 68.9909 146.418 69.0604 147.208 69.5366C148.176 70.1205 149.199 70.4535 150.329 70.4802C151.142 70.4995 151.383 70.9701 151.502 71.7402C151.841 73.9379 151.682 76.1412 151.714 78.3419C151.741 80.2234 151.727 82.1054 151.731 83.987C151.643 83.9877 151.556 83.9885 151.469 83.9894C150.842 83.4167 150.1 83.3371 149.311 83.5019C148.596 83.6511 147.884 83.8007 147.146 83.7608C146.539 83.728 145.757 83.7892 145.743 82.9811C145.731 82.2938 146.36 82.0084 147.048 82.0325C148.187 82.1663 149.198 81.6292 150.272 81.4245C151.176 81.2523 151.474 80.7817 151.517 79.8232C151.573 78.585 151.069 78.2771 149.961 78.0554C146.702 77.4033 143.49 77.4491 140.273 78.2498C139.685 78.3963 139.071 78.4411 138.469 78.5337C138.089 78.5921 137.819 78.4559 137.734 78.0706C137.654 77.7076 137.737 77.4127 138.176 77.3618C138.584 77.3143 138.885 77.1492 138.9 76.6894C138.918 76.1583 138.529 76.1594 138.151 76.1073C137.534 76.022 137.703 75.5127 137.698 75.1399C137.678 73.6678 137.684 72.1952 137.681 70.7228Z" fill="#70C0FD"/>
<path d="M150.98 92.1543C151.966 93.0765 151.525 94.3537 151.541 95.3866C151.564 96.8357 151.556 98.3173 151.456 99.7808C150.679 100.351 149.764 100.303 148.869 100.375C145.242 100.669 141.793 99.8162 138.369 98.7813C138.072 98.6491 137.84 98.4509 137.709 98.1473C137.39 96.9791 137.565 95.7851 137.539 94.6027C137.499 92.8667 137.451 92.7833 135.746 92.7797C130.954 92.7695 126.161 92.7767 121.368 92.7759C117.968 92.7754 114.568 92.7832 111.168 92.7696C110.564 92.7672 109.925 92.8593 109.413 92.396C109.413 92.396 109.344 92.3652 109.344 92.3652C109.644 92.0617 110.031 92.1459 110.391 92.1459C123.921 92.1461 137.45 92.1505 150.98 92.1543Z" fill="#71BFFC"/>
<path d="M147.049 82.0326C146.699 82.4199 145.744 82.4797 146.014 83.1321C146.256 83.7183 147.102 83.5624 147.695 83.4941C148.293 83.4253 148.869 83.1344 149.466 83.0923C150.255 83.0367 151.226 82.7555 151.469 83.9896C148.6 84.002 145.731 83.9929 142.862 84.0339C140.546 84.0669 138.231 84.1672 135.916 84.2206C135.518 84.2298 135.09 84.3346 134.73 84.0449C134.976 84.0308 135.221 84.0067 135.466 84.0037C137.486 83.979 137.484 83.98 137.698 81.9441C137.719 81.7455 137.718 81.4668 137.841 81.37C138.447 80.8944 139.335 80.4425 137.705 80.2441C137.645 80.2369 137.546 80.036 137.57 79.9573C137.652 79.6872 137.909 79.6524 138.149 79.5799C139.685 79.1157 141.286 78.959 142.859 78.8905C144.934 78.8002 147.034 78.6225 149.104 79.0702C149.465 79.1483 149.929 79.1164 149.899 79.6187C149.876 80.0132 149.51 80.1994 149.127 80.3008C147.39 80.7609 145.612 80.653 143.875 80.4689C142.603 80.334 141.344 80.3756 140.08 80.3245C139.753 80.3113 139.232 80.1666 139.24 80.7392C139.247 81.2962 139.738 81.3007 140.156 81.3029C142.242 81.3137 144.312 81.5264 146.377 81.7947C146.622 81.8264 146.871 81.823 147.049 82.0326Z" fill="#78C1FA"/>
<path d="M110.063 77.7057C107.806 78.9149 107.576 81.07 107.253 83.1121C107.108 84.0292 106.743 84.2743 105.906 84.2127C105.175 84.1588 104.424 84.1156 103.703 84.2179C102.404 84.4023 101.847 83.875 101.782 82.604C101.726 81.506 101.536 80.4153 101.468 79.3175C101.414 78.4471 101.814 77.7049 102.692 77.5881C105.119 77.2653 107.556 77.4092 110.063 77.7057Z" fill="#E1E7FD"/>
<path d="M110.837 76.9056C110.941 76.3877 111.014 75.8615 111.155 75.354C111.365 74.5976 111.895 74.1969 112.68 74.1718C113.454 74.1472 113.698 74.6812 113.902 75.31C114.175 76.1572 114.027 77.0154 114.043 77.8668C114.073 79.5028 114.049 81.1398 114.054 82.7764C114.055 83.2749 114.089 83.7774 113.529 84.0382C112.177 84.049 110.824 84.0658 109.472 84.0686C107.994 84.0718 107.933 83.9881 108.266 82.5247C108.321 82.2854 108.373 82.0457 108.427 81.8063C108.618 81.3419 109.07 81.2256 109.461 81.0237C111.101 80.1756 111.593 78.9785 111.062 77.1417C110.987 77.063 110.912 76.9843 110.837 76.9056Z" fill="#CFF1FE"/>
<path d="M104.673 90.6225C102.446 90.8761 102.454 90.876 102.419 88.6928C102.407 87.9188 102.388 87.1396 102.289 86.3738C102.154 85.3429 102.435 84.8018 103.581 85.0097C103.858 85.06 104.151 85.0237 104.437 85.0272C104.619 85.1187 104.844 85.216 104.872 85.4203C105.11 87.1644 105.427 88.9154 104.673 90.6225Z" fill="#E4E9F8"/>
<path d="M104.672 90.6225C104.57 88.7583 104.955 86.8736 104.437 85.0271C106.924 84.9339 106.924 84.9339 106.918 87.398C106.917 87.7656 106.915 88.1332 106.913 88.5007C106.9 90.6738 106.9 90.6738 104.672 90.6225Z" fill="#A1B1FA"/>
<path d="M111.062 77.1417C111.949 78.5921 111.558 80.2268 110.088 81.0608C109.563 81.3591 108.982 81.5605 108.427 81.8062C108.583 80.5278 109.142 79.5084 110.36 78.9686C111.235 78.5808 111.185 77.8871 111.062 77.1417Z" fill="#99CAFC"/>
<path d="M126.127 23.835C126.127 24.6935 126.089 25.5542 126.138 26.41C126.182 27.1705 125.876 27.4533 125.14 27.3871C124.734 27.3507 124.322 27.368 123.914 27.3805C123.421 27.3956 123.15 27.2242 123.156 26.6787C123.173 24.8799 123.094 23.0768 123.196 21.2835C123.276 19.8854 124.468 20.3598 125.289 20.2658C126.198 20.1616 126.121 20.7968 126.117 21.382C126.111 22.1996 126.116 23.0173 126.116 23.835C126.119 23.835 126.123 23.835 126.127 23.835Z" fill="#99A7FA"/>
<path d="M118.204 34.014C118.633 34.3762 119.182 34.6635 119.467 35.1164C120.037 36.0228 119.798 36.997 119.082 37.6827C116.464 40.1907 115.387 43.361 115.125 46.841C115.048 47.8556 114.533 48.0806 113.793 48.2876C113.692 48.4194 113.563 48.5136 113.407 48.5717C110.98 48.86 108.546 48.6932 106.114 48.6721C105.226 48.6645 104.859 48.1978 105.168 47.3105C106.042 41.1334 109.575 37.0831 115.241 34.7581C116.186 34.3705 117.159 34.034 118.204 34.014Z" fill="#FDFDFE"/>
<path d="M137.962 66.3393C137.785 66.3182 137.608 66.2971 137.432 66.2761C136.779 65.2953 135.797 65.1948 134.73 65.1966C126.795 65.2107 118.86 65.2022 110.925 65.2062C110.394 65.2064 109.861 65.2406 109.342 65.0865C109.283 65.0773 109.225 65.069 109.166 65.0618C108.814 64.144 109.045 63.8354 110.102 63.8378C123.333 63.8681 136.565 63.8466 149.796 63.8482C152.235 63.8485 151.723 63.7088 151.735 65.7863C151.736 65.9501 151.731 66.1139 151.73 66.2776C147.141 66.2981 142.551 66.3187 137.962 66.3393Z" fill="#D7E0FC"/>
<path d="M105.168 47.3105C105.103 48.0987 105.454 48.3493 106.245 48.3367C108.689 48.2979 111.134 48.3363 113.579 48.3447C113.906 48.8431 114.113 49.3533 113.732 49.9216C113.61 50.0047 113.476 50.0623 113.332 50.0987C111.25 50.2719 109.164 50.1371 107.079 50.1794C105.683 50.2078 105.586 50.278 105.58 51.6202C105.567 54.7286 105.564 57.8372 105.581 60.9456C105.589 62.3441 105.7 62.4189 107.159 62.46C107.929 62.4817 108.717 62.3405 109.462 62.6696C109.616 62.7527 109.666 62.8777 109.612 63.0439C108.344 63.058 107.076 63.0645 105.808 63.0901C105.289 63.1006 104.942 62.9947 104.946 62.3608C104.974 57.4522 104.986 52.5436 105.011 47.635C105.011 47.5266 105.113 47.4187 105.168 47.3105Z" fill="#CBD5F8"/>
<path d="M109.612 63.0439C109.622 62.9847 109.631 62.9253 109.639 62.8657C109.999 62.4493 110.5 62.4607 110.978 62.4567C112.507 62.4441 114.037 62.4111 115.567 62.4737C122.49 62.3926 129.414 62.4456 136.337 62.4483C136.823 62.4486 137.334 62.4441 137.696 62.8726C137.691 62.9317 137.683 62.9906 137.673 63.0489C128.319 63.047 118.966 63.0454 109.612 63.0439Z" fill="#A5B4F9"/>
<path d="M105.177 193.074C115.104 193.066 125.031 193.067 134.957 193.036C135.796 193.033 135.996 193.346 135.982 194.119C135.943 196.292 135.94 198.467 135.987 200.64C136.006 201.464 135.702 201.684 134.916 201.681C127.943 201.653 120.964 201.817 113.999 201.58C111.07 201.481 108.103 201.751 105.191 201.171C104.795 199.512 105.036 198.941 106.419 198.304C106.649 198.197 106.882 198.114 106.882 197.813C106.882 197.53 106.7 197.381 106.458 197.277C104.83 196.575 104.822 196.574 104.844 194.836C104.851 194.234 104.731 193.597 105.177 193.074Z" fill="#505B8C"/>
<path d="M151.141 193.051C155.402 193.05 159.664 193.074 163.925 193.031C164.885 193.021 165.163 193.247 165.319 194.282C165.595 196.112 165.277 197.927 165.491 199.737C165.557 200.291 165.444 200.626 164.741 200.7C162.755 200.909 160.772 201.083 158.776 201.182C152.038 201.519 145.3 201.755 138.551 201.691C137.345 201.68 136.857 201.398 136.921 200.114C137.019 198.153 136.992 196.181 136.929 194.216C136.9 193.296 137.19 193.023 138.11 193.033C142.453 193.077 146.797 193.052 151.141 193.051Z" fill="#404F7C"/>
<path d="M103.719 201.15C101.934 201.013 100.148 200.868 98.3615 200.742C97.7372 200.698 97.5484 200.389 97.558 199.783C97.5887 197.858 97.5988 195.931 97.5578 194.007C97.5414 193.238 97.8352 193.012 98.5659 193.034C100.204 193.081 101.843 193.066 103.482 193.076C103.659 193.258 103.785 193.48 103.79 193.726C103.839 196.201 104.007 198.678 103.719 201.15Z" fill="#515D8C"/>
<path d="M103.72 201.15C103.301 200.478 103.485 199.732 103.478 199.017C103.459 197.037 103.478 195.056 103.482 193.076C104.047 193.075 104.613 193.074 105.178 193.074C105.182 194.051 105.202 195.029 105.187 196.006C105.176 196.687 105.235 197.119 106.139 196.812C106.85 196.57 107.311 197.009 107.395 197.742C107.482 198.505 107.035 198.773 106.348 198.71C105.66 198.646 105.349 198.926 105.437 199.616C105.505 200.16 105.296 200.656 105.191 201.171C104.7 201.164 104.21 201.157 103.72 201.15Z" fill="#6670A3"/>
<path d="M105.153 122.672C104.859 122.317 104.952 121.889 104.95 121.49C104.939 117.759 104.965 114.028 104.919 110.298C104.908 109.395 105.158 109.097 106.092 109.099C118.023 109.134 129.957 109.003 141.884 109.208C145.938 109.278 149.978 109.165 154.023 109.119C155.117 109.106 155.437 109.463 155.415 110.531C155.353 113.482 155.391 116.434 155.391 119.386C155.392 123.05 154.084 125.988 150.73 127.792C150.065 128.027 149.38 128.082 148.678 128.081C136.806 128.07 124.934 128.07 113.062 128.064C111.559 128.064 110.059 128.012 108.593 127.626C107.792 126.914 106.868 126.348 106.177 125.504C105.731 124.959 105.352 124.411 105.414 123.666C105.768 123.301 106.177 123.417 106.547 123.589C109.069 124.762 111.767 125.145 114.5 125.383C115.227 125.613 115.968 125.451 116.7 125.453C120.551 125.465 124.402 125.424 128.251 125.472C130.508 125.5 132.741 125.152 134.998 125.172C136.282 125.184 136.988 124.46 137.012 123.182C137.085 119.087 137.042 114.991 137.038 110.895C137.037 110.131 136.695 109.756 135.928 109.77C135.806 109.772 135.683 109.759 135.56 109.759C127.901 109.743 120.241 109.778 112.582 109.738C110.701 109.785 108.818 109.776 106.937 109.746C105.921 109.729 105.572 110.149 105.579 111.131C105.602 114.363 105.6 117.595 105.579 120.827C105.575 121.463 105.712 122.154 105.153 122.672Z" fill="#A5B4F9"/>
<path d="M103.975 137.888C101.021 137.973 101.021 137.973 101.019 135.099C101.019 133.581 101.019 132.063 101.019 130.545C101.019 128.826 101.02 128.822 102.684 128.821C107.197 128.819 111.71 128.822 116.223 128.822C122.36 128.822 128.498 128.849 134.636 128.793C135.747 128.783 136.034 129.12 135.994 130.187C135.915 132.318 135.929 134.454 135.993 136.585C136.022 137.56 135.801 137.941 134.723 137.936C125.041 137.892 115.359 137.905 105.677 137.902C105.255 137.426 105.31 136.837 105.305 136.269C105.293 134.552 105.303 132.835 105.299 131.118C105.298 130.75 105.31 130.381 105.221 130.02C105.169 129.806 105.062 129.623 104.828 129.618C104.593 129.613 104.479 129.791 104.425 130.005C104.333 130.367 104.346 130.736 104.345 131.103C104.341 132.821 104.353 134.538 104.338 136.255C104.333 136.82 104.401 137.412 103.975 137.888Z" fill="#505B8E"/>
<path d="M148.287 137.912C144.928 137.913 141.568 137.887 138.21 137.929C137.301 137.941 136.884 137.766 136.922 136.725C137.002 134.516 136.976 132.302 136.932 130.091C136.917 129.286 137.194 129.068 137.988 129.028C141.664 128.844 145.356 128.582 149.016 128.866C152.254 129.118 155.454 128.785 158.671 128.79C159.581 128.792 159.885 129.043 159.86 129.97C159.8 132.18 159.8 134.395 159.862 136.605C159.891 137.654 159.478 137.941 158.487 137.928C155.088 137.884 151.687 137.911 148.287 137.912Z" fill="#404E7C"/>
<path d="M117 138.863C117.004 138.809 117.007 138.754 117.01 138.7C126.129 138.688 135.247 138.674 144.366 138.667C146.983 138.665 149.599 138.681 152.216 138.69C153.978 139.138 155.769 138.827 157.545 138.88C159.591 138.941 159.595 138.895 159.595 140.907C159.595 142.538 159.588 144.169 159.584 145.8C159.073 146.25 158.442 146.183 157.837 146.185C154.737 146.195 151.638 146.2 148.538 146.185C146.681 146.176 146.565 146.057 146.446 144.186C146.424 143.855 146.354 143.543 146.247 143.235C145.937 142.348 145.866 141.389 145.43 140.539C145.058 139.813 144.581 139.256 143.624 139.357C143.656 139.959 144.109 140.245 144.352 140.647C145.395 142.377 145.916 144.273 145.92 146.262C145.952 160.467 145.966 174.672 145.923 188.877C145.862 189.94 146.224 191.05 145.571 192.047C145.07 192.042 144.568 192.038 144.067 192.033C143.228 190.549 143.392 188.948 143.57 187.362C143.648 186.669 143.74 185.984 143.739 185.284C143.735 172.406 143.737 159.528 143.734 146.649C143.734 146.159 143.774 145.665 143.659 145.182C143.532 144.671 143.541 144.141 143.467 143.621C143.177 141.579 142.157 140.089 140.192 139.319C133.156 139.267 126.124 139.32 119.091 139.289C118.378 139.286 117.601 139.469 117 138.863Z" fill="#7587E9"/>
<path d="M103.975 137.888C103.971 135.305 103.974 132.723 103.957 130.14C103.953 129.515 103.955 129.029 104.828 129.031C105.713 129.033 105.69 129.542 105.687 130.154C105.675 132.737 105.679 135.319 105.677 137.902C105.109 137.897 104.542 137.892 103.975 137.888Z" fill="#6771A5"/>
<path d="M109.419 108.33C109.409 106.54 109.4 104.75 109.391 102.96C110.383 103.415 111.392 103.831 111.266 105.238C111.233 105.605 111.479 105.968 111.915 106.017C112.38 106.069 112.688 105.787 112.885 105.397C113.192 104.791 113.151 104.117 113.193 103.467C113.26 102.428 113.774 101.849 114.781 101.557C117.435 100.789 120.151 100.418 122.89 100.172C124.679 100.012 126.412 100.401 128.113 100.854C130.329 101.445 132.557 102.022 134.694 102.874C135.13 103.048 135.799 103.108 135.764 103.715C135.728 104.317 135.069 104.343 134.607 104.425C131.373 105.005 128.203 105.845 125.041 106.721C124.103 106.981 123.177 107.263 122.176 107.772C123.482 107.817 124.639 107.929 125.573 107.045C125.631 106.991 125.715 106.96 125.795 106.942C129.744 106.029 133.628 104.802 137.701 104.492C137.825 104.525 137.932 104.59 138.022 104.681C138.088 104.783 138.15 104.892 138.172 105.012C138.523 106.949 138.522 106.949 140.527 106.536C140.847 106.469 141.165 106.382 141.49 106.506C141.234 107.194 142.286 107.255 142.152 107.886C141.703 108.519 141.04 108.168 140.472 108.244C139.958 108.314 139.426 108.156 138.916 108.34C129.083 108.337 119.251 108.333 109.419 108.33Z" fill="#B0E7FD"/>
<path d="M114.284 125.624C111.515 125.584 108.85 125.074 106.35 123.841C106.045 123.691 105.755 123.574 105.414 123.666C105.111 123.391 105.259 122.998 105.153 122.672C105.162 118.667 105.203 114.661 105.16 110.656C105.149 109.662 105.394 109.291 106.443 109.336C108.484 109.422 110.53 109.377 112.575 109.387C112.681 109.445 112.793 109.475 112.916 109.49C113.316 109.536 113.803 109.543 113.886 110.032C113.972 110.536 113.454 110.641 113.137 110.864C111.03 111.174 110.041 112.318 110.412 114.496C110.445 114.687 110.358 114.892 110.284 115.082C110.049 115.655 109.52 115.763 109.004 115.918C108.201 116.159 107.753 116.697 107.828 117.56C107.903 118.426 108.398 118.774 109.276 118.906C110.872 119.148 112.467 119.064 114.064 119.109C114.624 119.125 115.23 119.014 115.67 119.524C115.814 121.386 115.636 123.249 115.676 125.114C115.697 126.092 114.842 125.682 114.284 125.624Z" fill="#FDFEFE"/>
<path d="M138.916 108.34C139.537 107.93 140.231 108.204 140.889 108.142C141.364 108.097 141.862 108.176 142.135 107.648C142.64 107.139 143.33 107.146 143.961 107.024C145.955 106.638 147.953 106.653 149.942 107.087C150.508 107.211 151.057 107.374 151.443 107.852C151.448 108.014 151.453 108.176 151.458 108.338C147.277 108.338 143.096 108.339 138.916 108.34Z" fill="#76C0FB"/>
<path d="M103.476 192.054C103.262 191.169 103.267 190.27 103.266 189.367C103.263 174.485 103.253 159.603 103.25 144.721C103.25 144.32 103.147 143.896 103.422 143.531C103.953 143.967 103.734 144.584 103.8 145.129C103.854 145.568 103.965 145.961 104.48 145.996C105.091 146.039 105.062 145.55 105.102 145.151C105.252 143.664 105.048 143.408 103.463 143.077C103.386 141.618 103.865 140.381 104.938 139.381C105.483 139.27 105.717 139.683 105.798 140.052C105.998 140.961 106.487 141.266 107.378 141.07C107.693 141.001 108.031 141.06 108.324 141.242C108.674 141.782 108.174 142.058 107.939 142.391C107.514 142.994 107.058 143.569 106.776 144.264C106.455 145.051 106.522 145.726 107.294 146.182C108.054 146.63 108.548 146.129 108.94 145.579C109.734 144.463 110.808 143.456 110.516 141.865C110.465 141.59 110.701 141.434 110.955 141.347C111.602 141.174 112.262 141.227 112.916 141.227C120.133 141.223 127.351 141.223 134.568 141.225C138.724 141.226 141.015 143.153 141.762 147.262C141.798 147.464 141.875 147.656 141.917 147.858C142.042 148.508 142.021 149.165 142.021 149.82C142.023 160.234 142.029 170.648 142.016 181.062C142.014 182.701 141.96 184.344 141.31 185.892C140.731 187.129 139.823 188.11 138.84 189.035C138.357 189.551 137.742 189.751 137.061 189.729C132.346 189.582 127.635 190.25 122.932 189.948C118.053 189.634 113.179 189.839 108.305 189.752C106.438 189.718 106.437 189.748 105.766 191.531C105.693 191.726 105.576 191.892 105.437 192.045C104.784 192.048 104.13 192.051 103.476 192.054Z" fill="#C6D2FE"/>
<path d="M146.553 143.079C146.918 143.404 146.783 143.839 146.791 144.233C146.823 145.787 146.816 145.787 148.421 145.789C152.142 145.792 155.863 145.796 159.584 145.8C159.587 160.813 159.582 175.827 159.613 190.84C159.615 191.809 159.35 192.103 158.37 192.09C154.104 192.033 149.838 192.055 145.571 192.047C145.566 190.989 145.562 189.931 145.557 188.874C145.944 188.576 146.076 188.169 146.106 187.695C146.143 187.122 146.143 186.549 146.143 185.976C146.144 172.421 146.14 158.866 146.152 145.311C146.153 144.555 145.963 143.74 146.553 143.079Z" fill="#8C9FF4"/>
<path d="M105.437 192.045C105.53 189.359 105.53 189.36 108.116 189.361C111.884 189.362 115.652 189.389 119.419 189.35C121.179 189.331 122.91 189.645 124.675 189.621C128.884 189.564 133.088 189.183 137.3 189.37C138.025 189.402 138.401 188.922 138.91 188.616C139.813 187.992 140.609 187.283 140.884 186.156C141.457 184.564 141.621 182.912 141.62 181.235C141.62 170.079 141.62 158.923 141.62 147.766C141.579 144.971 139.964 142.951 138.274 140.967C138.013 140.661 137.615 140.329 137.945 139.915C138.308 139.461 138.893 139.516 139.274 139.847C140.855 141.218 142.624 142.462 143.071 144.727C142.927 154.855 143.058 164.981 143.005 175.107C142.987 178.631 143.106 182.156 142.934 185.677C142.447 187.11 141.439 188.111 140.152 188.82C138.755 189.588 137.522 190.482 136.941 192.044C126.44 192.044 115.938 192.045 105.437 192.045Z" fill="#A5B0FA"/>
<path d="M136.941 192.044C136.72 190.685 137.711 189.981 138.606 189.435C140.111 188.517 141.535 187.555 142.618 186.147C143.505 185.664 143.441 184.824 143.441 183.996C143.438 171.67 143.435 159.344 143.448 147.018C143.449 146.264 143.249 145.446 143.863 144.795C144.218 145.178 144.077 145.653 144.077 146.088C144.085 159.415 144.126 172.742 144.038 186.068C144.025 188.058 143.822 190.045 144.067 192.034C141.692 192.037 139.316 192.04 136.941 192.044Z" fill="#8C9EF3"/>
<path d="M138.436 98.5131C140.018 98.8962 141.594 99.307 143.183 99.656C145.6 100.187 148.037 100.167 150.479 99.8161C150.8 99.7699 151.13 99.7907 151.456 99.7806C151.459 100.592 151.461 101.404 151.464 102.215C150.647 102.811 149.739 102.554 148.861 102.471C146.286 102.227 143.829 101.44 141.342 100.791C141.026 100.709 140.709 100.63 140.391 100.556C138.546 100.121 138.546 100.122 138.07 101.921C137.991 102.035 137.887 102.119 137.761 102.176C137.277 102.351 136.793 102.285 136.32 102.141C134.247 101.508 132.275 100.621 130.305 99.7335C129.915 99.5578 129.408 99.3113 129.604 98.7517C129.78 98.247 130.295 98.2379 130.754 98.2801C132.743 98.4632 134.73 98.6699 136.694 99.0435C137.379 99.1737 137.998 99.1601 138.436 98.5131Z" fill="#B3E7FD"/>
<path d="M137.937 101.976C137.898 99.1156 137.79 99.6827 140.188 100.167C143.063 100.747 145.832 101.79 148.77 102.122C149.673 102.224 150.566 102.205 151.464 102.215C151.461 103.208 151.458 104.201 151.455 105.193C150.997 105.386 150.569 105.207 150.153 105.06C147.073 103.973 143.893 103.655 140.651 103.803C140.244 103.821 139.837 103.822 139.43 103.806C138.019 103.748 137.796 103.473 137.937 101.976Z" fill="#74C1FC"/>
<path d="M137.937 101.976C138.02 103.45 138.955 103.531 140.147 103.458C144.034 103.22 147.84 103.617 151.456 105.193C151.452 106.08 151.448 106.966 151.444 107.852C148.65 106.981 145.836 106.863 142.992 107.602C142.721 107.673 142.421 107.635 142.135 107.648C141.644 107.486 140.892 107.46 141.625 106.664C142.032 106.047 142.702 105.965 143.339 105.869C144.186 105.741 145.031 105.612 145.878 105.316C144.619 105.026 143.353 104.833 142.05 104.763C140.679 104.69 139.304 105.084 137.942 104.699L137.898 104.642C137.624 103.772 137.517 102.887 137.677 101.981C137.764 101.979 137.85 101.977 137.937 101.976Z" fill="#B5EBFE"/>
<path d="M142.85 144.313C142.251 143.992 142.16 143.332 141.867 142.812C141.485 142.132 141.165 141.419 140.242 141.332C139.86 141.296 139.719 141.001 139.629 140.664C139.539 140.33 139.313 140.083 138.998 139.963C138.693 139.847 138.296 139.756 138.093 140.046C137.886 140.343 138.226 140.564 138.443 140.722C140.045 141.89 140.558 143.778 141.495 145.375C141.906 146.076 141.663 146.961 141.62 147.766C141.23 146.84 141.225 145.805 140.699 144.902C139.503 142.849 137.869 141.597 135.397 141.601C127.134 141.613 118.871 141.606 110.608 141.606C109.839 141.802 109.088 141.843 108.394 141.362C108.312 141.362 108.229 141.349 108.149 141.361C106.806 141.57 105.48 141.77 105.368 139.783C105.36 139.641 105.087 139.515 104.938 139.381C105.119 138.661 105.712 138.918 106.146 138.914C109.764 138.882 113.382 138.877 117 138.864C124.371 138.875 131.742 138.882 139.113 138.906C139.624 138.908 140.184 138.724 140.639 139.144C140.438 139.675 140.898 139.858 141.174 140.118C141.926 140.827 142.52 141.647 142.915 142.597C143.148 143.16 143.337 143.76 142.85 144.313Z" fill="#A5B2F8"/>
<path d="M103.463 143.077C104.953 142.579 105.415 142.9 105.447 144.461C105.453 144.788 105.454 145.116 105.45 145.444C105.444 145.951 105.438 146.554 104.733 146.456C104.156 146.376 103.349 146.409 103.466 145.37C103.534 144.766 103.442 144.145 103.422 143.531C103.435 143.38 103.449 143.228 103.463 143.077Z" fill="#FCFCFC"/>
<path d="M109.413 92.3959C118.554 92.3877 127.695 92.3897 136.835 92.3546C137.703 92.3513 137.975 92.6287 137.947 93.4792C137.895 95.0758 137.939 96.6756 137.943 98.274C137.494 98.7267 136.951 98.5724 136.437 98.4798C131.043 97.5082 125.596 97.6088 120.154 97.6909C118.56 97.715 116.985 98.0585 115.419 98.3802C113.73 98.7274 113.205 98.2853 113.269 96.5965C113.294 95.9326 113.567 94.9539 112.645 94.901C111.79 94.8521 111.826 95.8576 111.734 96.5273C111.673 96.9723 111.716 97.427 111.703 97.877C111.661 99.4475 111.075 100.113 109.391 100.504C109.399 97.8016 109.406 95.0987 109.413 92.3959Z" fill="#B0E7FD"/>
<path d="M109.392 100.504C109.923 100.208 110.235 99.6269 110.876 99.4483C111.44 99.2911 111.321 98.7491 111.35 98.3075C111.411 97.3741 111.204 96.4306 111.498 95.5038C111.723 94.793 112.045 94.106 112.9 94.3115C113.717 94.5079 113.741 95.3264 113.756 96.0213C113.763 96.3374 113.587 96.6544 113.572 96.9747C113.519 98.0609 113.888 98.3406 114.941 98.1136C117.256 97.615 119.581 97.2706 121.966 97.2837C126.173 97.3068 130.38 97.2481 134.565 97.7962C135.693 97.9439 136.788 98.3204 137.943 98.2742C138.107 98.3539 138.271 98.4336 138.436 98.5133C138.747 99.613 137.984 99.5791 137.319 99.496C136.03 99.3348 134.746 99.1155 133.468 98.8805C132.464 98.696 131.428 98.8642 130.436 98.5538C130.213 98.4838 129.929 98.5298 129.777 98.7668C129.619 99.0145 129.823 99.1611 130.003 99.2325C132.529 100.237 134.884 101.722 137.677 101.981C138.047 102.844 138.064 103.736 137.898 104.643C133.952 105.287 130.071 106.236 126.184 107.152C126.026 107.189 125.797 107.169 125.719 107.268C124.506 108.806 122.869 107.844 121.405 107.968C125.869 105.716 130.762 104.934 135.786 103.804C134.689 103.074 133.605 102.808 132.56 102.504C129.395 101.582 126.281 100.318 122.899 100.522C120.046 100.693 117.234 101.187 114.479 101.977C113.889 102.147 113.604 102.485 113.547 103.104C113.477 103.866 113.522 104.632 113.337 105.396C113.128 106.263 112.421 106.547 111.795 106.514C111.188 106.482 110.899 105.84 110.827 105.138C110.78 104.685 111.502 103.386 109.886 104.037C109.47 104.205 109.839 103.211 109.391 102.96C109.391 102.142 109.391 101.323 109.392 100.504Z" fill="#E7FCFE"/>
<path d="M113.832 49.7718C113.495 49.3408 113.559 48.8386 113.579 48.3446C113.651 48.3293 113.722 48.3103 113.793 48.2878C121.834 48.293 129.875 48.2984 137.916 48.3037C137.919 48.8027 137.923 49.3019 137.926 49.8011C137.58 50.1633 137.121 50.1862 136.673 50.1859C129.475 50.1818 122.277 50.2703 115.079 50.1402C114.636 50.1322 114.166 50.1697 113.832 49.7718Z" fill="#A5B4FA"/>
<path d="M113.832 49.7718C121.863 49.7815 129.895 49.7912 137.926 49.801L137.926 49.8002C138.498 50.5237 138.53 51.4035 138.547 52.251C138.61 55.3162 138.578 58.3824 138.566 61.4482C138.564 61.9409 138.538 62.4366 138.143 62.8124C137.994 62.8323 137.845 62.8522 137.696 62.8723C131.161 62.8635 124.626 62.8555 118.091 62.8443C117.233 62.8428 116.376 62.8253 115.519 62.8152C115.063 62.3005 115.154 61.6646 115.151 61.0604C115.138 58.3201 115.138 55.5795 115.15 52.8391C115.155 51.6552 115.146 50.5085 113.684 50.1239C113.552 50.0891 113.572 49.9234 113.554 49.8054C113.647 49.7942 113.739 49.783 113.832 49.7718Z" fill="#DFE6FE"/>
<path d="M138.143 62.8124C138.103 58.4744 138.368 54.1314 137.926 49.8001C142.641 49.7989 147.355 49.7996 152.07 49.7941C152.681 49.7934 153.283 49.8018 153.893 49.6213C154.683 49.3875 155.194 49.5459 155.181 50.6004C155.132 54.3303 155.145 58.0613 155.18 61.7914C155.187 62.5873 154.944 62.8599 154.131 62.8541C148.802 62.8164 143.472 62.8214 138.143 62.8124Z" fill="#A5B4F9"/>
<path d="M137.354 78.9278C137.107 80.6491 136.291 81.2963 134.935 81.5666C133.992 81.7545 133.126 82.3101 132.212 82.6666C131.683 82.8729 131.131 82.8698 130.768 82.3554C130.323 81.7253 131.028 81.5279 131.295 81.1865C131.439 81.0027 131.669 80.8544 131.891 80.7685C133.631 80.0942 135.51 79.8894 137.354 78.9278Z" fill="#E5FAFD"/>
<path d="M109.342 65.0865C109.57 64.7703 109.911 64.8093 110.236 64.8093C118.767 64.8098 127.297 64.8094 135.827 64.8164C136.784 64.8172 137.571 65.0491 137.432 66.2761C128.439 66.285 119.445 66.2774 110.452 66.326C109.443 66.3315 109.27 65.895 109.342 65.0865Z" fill="#FAFBFD"/>
<path d="M116.51 67.5134C117.711 67.5134 118.232 68.0217 118.246 69.2067C118.261 70.4528 117.722 70.9848 116.459 70.9696C115.289 70.9556 114.785 70.4248 114.79 69.2124C114.796 68.0162 115.305 67.5134 116.51 67.5134Z" fill="#B9ECFE"/>
<path d="M150.344 73.6924C149.912 73.6534 149.354 73.7411 149.377 73.1744C149.398 72.6583 149.947 72.5279 150.388 72.4687C150.859 72.4055 151.194 72.6313 151.194 73.1483C151.194 73.7855 150.691 73.6509 150.344 73.6924Z" fill="#AFE5FD"/>
<path d="M149.033 74.9047C148.61 74.8948 148.503 74.6277 148.521 74.2653C148.536 73.9703 148.597 73.6378 148.976 73.7479C149.329 73.8506 149.556 74.2016 149.573 74.5577C149.585 74.8161 149.288 74.899 149.033 74.9047Z" fill="#AFE5FD"/>
<path d="M144.83 95.3587C144.811 96.1256 144.443 96.5465 143.637 96.5588C142.788 96.5717 142.354 96.1787 142.359 95.317C142.364 94.5271 142.748 94.1205 143.545 94.1016C144.4 94.0814 144.818 94.4991 144.83 95.3587Z" fill="#AAE1FE"/>
<path d="M141.281 83.2929C141.281 83.0188 141.265 82.9669 141.284 82.9462C141.746 82.4306 142.273 82.0906 142.993 82.3956C143.193 82.4804 143.353 82.7149 143.229 82.8878C142.706 83.6179 141.969 83.1111 141.281 83.2929Z" fill="#70C0FD"/>
<path d="M113.554 49.8054C115.527 50.4766 115.529 50.4766 115.528 52.8566C115.526 56.1763 115.522 59.496 115.519 62.8155C113.559 62.8319 111.599 62.8486 109.639 62.8655C108.495 62.8567 107.35 62.8177 106.207 62.8499C105.507 62.8697 105.173 62.6989 105.18 61.9046C105.214 58.1853 105.214 54.4654 105.184 50.746C105.177 49.9701 105.479 49.774 106.196 49.784C108.649 49.8179 111.102 49.8021 113.554 49.8054Z" fill="#FDFDFE"/>
<path d="M113.069 110.587C114.708 109.444 112.565 109.859 112.574 109.387C120.53 109.379 128.486 109.377 136.442 109.353C137.152 109.35 137.47 109.525 137.465 110.311C137.435 114.699 137.46 119.087 137.444 123.474C137.44 124.612 136.491 125.557 135.365 125.611C128.609 125.935 121.848 125.817 115.088 125.839C114.802 125.84 114.509 125.857 114.285 125.624C115.076 125.685 115.464 125.59 115.339 124.533C115.141 122.854 115.23 121.138 115.52 119.451C115.615 119.342 115.731 119.266 115.868 119.221C117.262 119.472 118.659 119.663 120.086 119.585C121.401 119.513 121.535 119.401 121.565 118.068C121.568 117.945 121.566 117.823 121.567 117.7C121.577 115.4 121.579 115.383 119.341 115.121C118.555 115.029 118.18 114.668 118.142 113.869C118.112 113.231 118.318 112.553 117.89 111.968C116.928 111.149 115.747 111.048 114.567 110.939C114.052 110.892 113.493 111.026 113.069 110.587Z" fill="#DEE5FE"/>
<path d="M109.729 135.102C109.635 135.823 109.331 136.525 108.419 136.656C107.73 136.755 106.856 135.638 106.956 134.708C107.035 133.965 107.144 133.105 108.177 133.002C108.925 132.927 109.7 133.943 109.729 135.102Z" fill="#6B74A6"/>
<path d="M156.89 130.873C156.843 131.72 156.948 132.731 155.681 132.725C154.552 132.72 154.512 131.772 154.43 130.968C154.33 130.002 154.784 129.547 155.788 129.529C156.79 129.51 156.966 130.054 156.89 130.873Z" fill="#5B6693"/>
<path d="M142.85 144.313C142.996 142.323 141.811 141.058 140.432 139.907C140.25 139.754 139.944 139.673 140.018 139.378C140.096 139.065 140.414 139.185 140.638 139.144C143.075 140.251 143.846 142.308 143.862 144.795C143.857 157.806 143.851 170.817 143.844 183.828C143.844 184.237 143.792 184.654 143.852 185.054C144.009 186.089 143.653 186.487 142.618 186.147C142.615 172.723 142.616 159.298 142.599 145.874C142.599 145.328 142.759 144.832 142.85 144.313Z" fill="#BFCCFE"/>
<path d="M146.553 143.079C146.55 157.899 146.548 172.719 146.546 187.539C146.546 188.231 146.7 189.032 145.556 188.873C145.554 175.723 145.529 162.573 145.562 149.422C145.572 145.702 145.643 142.011 142.638 139.11C144.63 138.659 145.236 138.922 145.899 140.603C146.21 141.392 146.34 142.251 146.553 143.079Z" fill="#BDCBFD"/>
<path d="M137.942 104.699C140.987 104.234 143.99 104.267 146.912 105.369C145.191 106.086 143.331 106.041 141.625 106.664C140.916 106.829 140.199 106.964 139.501 107.166C138.281 107.518 137.943 107.294 137.927 106.043C137.922 105.595 137.937 105.147 137.942 104.699Z" fill="#76C0FB"/>
<path d="M115.769 119.414C115.686 119.427 115.603 119.439 115.52 119.452C113.485 119.402 111.45 119.372 109.417 119.298C108.063 119.249 107.442 118.679 107.385 117.531C107.326 116.338 107.913 115.719 109.314 115.581C109.684 115.545 109.936 115.462 110.049 115.098C110.438 115.247 110.798 115.504 111.252 115.4C113.211 115.374 115.167 115.373 117.123 115.39C117.485 115.438 117.861 115.416 118.2 115.587C119.048 116.513 119.221 117.372 118.713 118.332C118.236 119.23 117.503 119.595 116.483 119.341C116.255 119.284 115.997 119.297 115.769 119.414Z" fill="#E88338"/>
<path d="M110.871 115.703C110.318 115.878 110.109 115.587 110.049 115.096C110.046 114.569 110.036 114.04 110.041 113.511C110.057 111.366 110.104 111.312 112.247 110.808C112.523 110.743 112.795 110.661 113.069 110.587C114.87 110.524 116.634 110.652 118.24 111.591C118.335 112.989 118.587 114.386 118.243 115.784C117.913 115.76 117.583 115.737 117.253 115.714C116.999 114.995 117.189 114.252 117.149 113.521C117.103 112.698 116.695 112.249 115.921 112.06C115.193 111.883 114.455 111.91 113.719 111.933C111.562 112.001 111.274 112.296 111.195 114.431C111.179 114.877 111.226 115.342 110.871 115.703Z" fill="#29365D"/>
<path d="M103.504 177.771C103.497 168.102 103.493 158.433 103.48 148.764C103.479 148.179 103.5 147.716 104.302 147.74C104.988 147.76 105.339 147.828 105.511 148.686C105.737 149.821 105.388 150.874 105.444 151.966C105.861 160.184 105.603 168.409 105.664 176.63C105.667 177.102 105.837 177.621 105.443 178.039C104.717 178.523 104.071 178.429 103.504 177.771Z" fill="#FDFDFD"/>
<path d="M122.552 179.496C117.673 179.496 112.795 179.497 107.916 179.496C107.588 179.496 107.26 179.493 106.933 179.482C106.582 179.47 106.428 179.269 106.417 178.929C106.404 178.534 106.565 178.305 106.981 178.3C107.268 178.296 107.555 178.29 107.842 178.29C117.599 178.29 127.356 178.29 137.113 178.291C137.4 178.291 137.687 178.29 137.973 178.307C138.419 178.334 138.639 178.583 138.622 179.029C138.605 179.492 138.268 179.513 137.926 179.515C137.434 179.518 136.942 179.517 136.45 179.517C131.817 179.517 127.185 179.517 122.552 179.517C122.552 179.51 122.552 179.503 122.552 179.496Z" fill="#7E90EA"/>
<path d="M122.388 181.746C117.514 181.746 112.64 181.746 107.766 181.745C107.439 181.745 107.111 181.742 106.784 181.734C106.465 181.727 106.222 181.624 106.207 181.251C106.192 180.889 106.391 180.747 106.728 180.716C107.337 180.661 107.944 180.534 108.553 180.533C118.096 180.52 127.639 180.523 137.182 180.523C137.468 180.523 137.756 180.52 138.041 180.547C138.422 180.585 138.622 180.811 138.633 181.198C138.645 181.643 138.362 181.744 137.993 181.744C137.706 181.744 137.419 181.747 137.133 181.747C132.218 181.747 127.303 181.747 122.388 181.746Z" fill="#798DE9"/>
<path d="M122.389 186.631C117.55 186.631 112.71 186.631 107.871 186.631C107.584 186.631 107.297 186.631 107.01 186.623C106.696 186.613 106.438 186.523 106.428 186.144C106.417 185.767 106.663 185.704 106.976 185.632C108.221 185.347 109.49 185.481 110.737 185.472C118.693 185.413 126.649 185.433 134.605 185.45C135.706 185.452 136.807 185.578 137.908 185.649C138.228 185.67 138.625 185.619 138.595 186.116C138.57 186.533 138.245 186.626 137.891 186.636C137.605 186.644 137.317 186.641 137.03 186.641C132.15 186.641 127.269 186.641 122.389 186.641C122.389 186.638 122.389 186.635 122.389 186.631Z" fill="#7B90ED"/>
<path d="M122.294 153.671C127.215 153.671 132.135 153.67 137.056 153.673C137.424 153.673 137.797 153.667 138.159 153.721C138.481 153.768 138.645 154.006 138.615 154.342C138.59 154.622 138.417 154.807 138.154 154.838C137.789 154.882 137.418 154.878 137.05 154.878C129.833 154.876 122.616 154.889 115.399 154.858C112.627 154.847 109.856 154.739 107.085 154.665C106.702 154.655 106.164 154.779 106.208 154.127C106.251 153.503 106.789 153.663 107.163 153.662C112.206 153.652 117.25 153.655 122.294 153.655C122.294 153.661 122.294 153.666 122.294 153.671Z" fill="#7E91EA"/>
<path d="M122.501 148.509C127.498 148.509 132.495 148.503 137.492 148.519C137.894 148.521 138.465 148.276 138.631 148.912C138.777 149.47 138.523 149.742 137.917 149.727C132.763 149.601 127.607 149.822 122.45 149.558C118.895 149.375 115.325 149.511 111.761 149.505C110.246 149.503 108.73 149.517 107.215 149.493C106.816 149.487 106.185 149.696 106.215 148.965C106.244 148.259 106.868 148.483 107.264 148.482C112.343 148.467 117.422 148.472 122.501 148.472C122.501 148.484 122.501 148.497 122.501 148.509Z" fill="#778BEC"/>
<path d="M116.915 151.946C113.717 151.946 110.519 151.964 107.322 151.927C106.848 151.922 105.988 152.334 105.997 151.375C106.006 150.507 106.822 150.717 107.338 150.756C112.494 151.154 117.658 150.866 122.817 150.926C127.613 150.982 132.41 150.952 137.207 150.96C137.453 150.96 137.699 150.968 137.945 150.963C138.369 150.954 138.661 151.077 138.66 151.576C138.658 152.088 138.343 152.176 137.928 152.166C134.368 152.074 130.809 152.226 127.243 152.036C123.809 151.853 120.358 151.997 116.915 151.997C116.915 151.98 116.915 151.963 116.915 151.946Z" fill="#788FEF"/>
<path d="M122.422 184.194C117.459 184.194 112.495 184.2 107.531 184.183C107.137 184.182 106.485 184.427 106.455 183.737C106.419 182.923 107.143 183.2 107.561 183.199C117.529 183.187 127.497 183.195 137.465 183.2C137.67 183.2 137.876 183.206 138.08 183.214C138.403 183.226 138.64 183.335 138.631 183.715C138.622 184.101 138.365 184.181 138.051 184.184C137.231 184.191 136.411 184.199 135.59 184.2C131.201 184.201 126.812 184.2 122.422 184.2C122.422 184.198 122.422 184.196 122.422 184.194Z" fill="#7488E7"/>
<path d="M103.504 177.771C104.127 178.024 104.779 178.071 105.443 178.039C105.441 181.476 105.452 184.914 105.424 188.351C105.42 188.8 105.746 189.608 104.866 189.546C104.159 189.495 103.452 189.24 103.467 188.205C103.514 184.727 103.496 181.249 103.504 177.771Z" fill="#E7ECFE"/>
<path d="M108.394 141.362C109.141 141.36 109.91 141.156 110.608 141.606C111.048 142.587 110.95 143.479 110.241 144.322C109.747 144.91 109.329 145.56 108.865 146.173C108.361 146.838 107.737 146.946 107.06 146.465C106.423 146.013 106.031 145.434 106.292 144.592C106.689 143.316 107.577 142.363 108.394 141.362Z" fill="#FCFDFD"/>
<path d="M119.995 167.983C118.928 167.987 118.271 167.374 118.258 166.363C118.246 165.369 119.037 164.571 120.047 164.557C121.067 164.543 121.708 165.191 121.723 166.248C121.738 167.399 121.161 167.978 119.995 167.983Z" fill="#7083DF"/>
<path d="M136.955 166.365C136.94 166.927 136.652 167.455 135.888 167.409C135.312 167.374 134.733 167.137 134.75 166.39C134.769 165.59 135.209 165.046 136.009 165.039C136.695 165.032 136.955 165.571 136.955 166.365Z" fill="#F6F8FC"/>
<path d="M133.738 170.808C133.761 170.156 134.054 169.674 134.749 169.704C135.512 169.736 135.732 170.29 135.721 170.986C135.71 171.678 135.327 171.884 134.699 171.892C133.936 171.902 133.693 171.499 133.738 170.808Z" fill="#F7F9FC"/>
<path d="M140.885 186.156C140.867 187.49 140.081 188.207 138.91 188.616C139.567 187.795 140.357 187.081 140.885 186.156Z" fill="#A5B2F8"/>
<path d="M120.252 99.3615C118.324 99.8217 116.401 100.299 114.466 100.727C114.097 100.809 113.537 100.869 113.453 100.332C113.383 99.8833 113.914 99.7942 114.23 99.6932C116.184 99.0689 118.185 98.8756 120.252 99.3615Z" fill="#B8ECFC"/>
<path d="M150.996 52.3367C150.986 53.192 150.716 53.7071 150.029 53.6928C149.231 53.6762 148.787 53.1412 148.779 52.3475C148.772 51.6738 149.175 51.3013 149.849 51.2931C150.675 51.2831 150.987 51.7796 150.996 52.3367Z" fill="#DAE0FC"/>
<path d="M118.243 115.784C118.242 114.386 118.241 112.989 118.24 111.591C118.749 112.293 118.447 113.092 118.47 113.84C118.492 114.529 118.715 114.746 119.402 114.774C121.933 114.878 121.942 114.903 121.928 117.403C121.911 120.276 122.24 119.854 119.345 119.963C118.093 120.01 116.944 119.697 115.768 119.414C115.92 119.368 116.068 119.297 116.223 119.28C118.602 119.027 119.202 117.992 118.243 115.784Z" fill="#A2B3F5"/>
<path d="M127.333 118.496C126.602 118.101 125.931 117.651 125.663 116.797C125.284 115.591 125.769 114.303 126.829 113.73C127.95 113.125 129.349 113.41 130.148 114.406C130.935 115.387 130.899 116.665 130.05 117.66C129.891 117.846 129.714 118.016 129.545 118.193C128.876 118.792 128.163 119.071 127.333 118.496Z" fill="#293966"/>
<path d="M127.334 118.496C128.089 118.53 128.845 118.561 129.546 118.193C129.002 119.013 129.798 119.911 129.374 120.778C129.174 121.187 129.147 121.619 128.569 121.659C128.055 121.694 127.76 121.475 127.515 121.03C127.058 120.2 126.897 119.376 127.334 118.496Z" fill="#ACBBF5"/>
<path d="M110.871 115.703C110.866 115.132 110.856 114.56 110.855 113.988C110.855 112.092 110.887 112.023 112.719 111.66C113.725 111.461 114.767 111.477 115.767 111.641C117.54 111.933 118.032 113.367 117.253 115.714C115.125 115.71 112.998 115.707 110.871 115.703Z" fill="#43527C"/>
<path d="M112.303 116.503C113.241 116.503 114.18 116.518 115.118 116.498C115.689 116.485 116.062 116.603 116.039 117.296C116.018 117.923 115.966 118.461 115.155 118.461C113.196 118.462 111.237 118.459 109.279 118.467C108.571 118.47 108.384 118.067 108.383 117.442C108.381 116.759 108.711 116.493 109.365 116.504C110.344 116.519 111.324 116.508 112.303 116.508V116.503Z" fill="#F99746"/>
<path d="M120.719 166.334C120.738 166.843 120.433 167.105 119.985 167.097C119.525 167.089 119.249 166.758 119.28 166.293C119.314 165.797 119.743 165.621 120.137 165.589C120.604 165.551 120.703 165.943 120.719 166.334Z" fill="#B3C5FD"/>
<path d="M129.805 116.023C129.804 117 129.17 117.68 128.25 117.693C127.498 117.703 126.424 116.646 126.382 115.856C126.345 115.161 127.28 114.326 128.128 114.296C128.964 114.266 129.805 115.133 129.805 116.023Z" fill="#4C5A85"/>
</svg>
