<svg width="23" height="23" viewBox="0 0 23 23" fill="none" xmlns="http://www.w3.org/2000/svg">
<g id="Icon Search Small">
<g id="vuesax/outline/search-normal">
<g id="search-normal">
<path id="Vector" d="M11.9792 20.8438C17.3938 20.8438 21.8021 16.4354 21.8021 11.0208C21.8021 5.60626 17.3938 1.19792 11.9792 1.19792C6.56462 1.19792 2.15629 5.60626 2.15629 11.0208C2.15629 16.4354 6.56462 20.8438 11.9792 20.8438ZM11.9792 2.63542C16.608 2.63542 20.3646 6.40167 20.3646 11.0208C20.3646 15.64 16.608 19.4063 11.9792 19.4063C7.35046 19.4063 3.59379 15.64 3.59379 11.0208C3.59379 6.40167 7.35046 2.63542 11.9792 2.63542Z" fill="#95959D"/>
<path id="Vector_2" d="M1.91666 21.8021C2.09874 21.8021 2.28083 21.735 2.42458 21.5913L4.34125 19.6746C4.61916 19.3967 4.61916 18.9367 4.34125 18.6588C4.06333 18.3808 3.60333 18.3808 3.32541 18.6588L1.40874 20.5754C1.13083 20.8533 1.13083 21.3133 1.40874 21.5913C1.55249 21.735 1.73458 21.8021 1.91666 21.8021Z" fill="#95959D"/>
</g>
</g>
</g>
</svg>
