<svg width="22" height="20" viewBox="0 0 22 20" fill="none" xmlns="http://www.w3.org/2000/svg">
<g id="ant-design:star-filled">
<path id="Vector" d="M18.9058 8.06251L13.5336 7.3418L11.132 2.84766C11.0664 2.72462 10.9585 2.62501 10.8252 2.56446C10.4909 2.41212 10.0847 2.53907 9.91751 2.84766L7.51598 7.3418L2.14375 8.06251C1.99564 8.08204 1.86022 8.14649 1.75654 8.24415C1.6312 8.36307 1.56213 8.52305 1.56451 8.68896C1.56689 8.85486 1.64053 9.0131 1.76924 9.12891L5.65612 12.627L4.73782 17.5664C4.71629 17.6813 4.73007 17.7995 4.77759 17.9075C4.82511 18.0156 4.90447 18.1092 5.00669 18.1777C5.1089 18.2462 5.22987 18.2869 5.35587 18.2952C5.48188 18.3035 5.60788 18.2791 5.7196 18.2246L10.5248 15.8926L15.3299 18.2246C15.4611 18.2891 15.6135 18.3106 15.7595 18.2871C16.1276 18.2285 16.3752 17.9063 16.3117 17.5664L15.3934 12.627L19.2803 9.12891C19.3861 9.03321 19.4559 8.90821 19.4771 8.77149C19.5342 8.42969 19.2761 8.11329 18.9058 8.06251Z" fill="#F3D000"/>
</g>
</svg>
